ISO-10303-21;
HEADER;
/* Generated by software containing ST-Developer
 * from STEP Tools, Inc. (www.steptools.com) 
 */

FILE_DESCRIPTION(
/* description */ (''),
/* implementation_level */ '2;1');

FILE_NAME(
/* name */ 'base.step',
/* time_stamp */ '2026-09-26T12:02:33-07:00',
/* author */ (''),
/* organization */ (''),
/* preprocessor_version */ 'ST-DEVELOPER v20.2',
/* originating_system */ 'Autodesk Translation Framework v15.15.0.0',
/* authorisation */ '');

FILE_SCHEMA (('AUTOMOTIVE_DESIGN { 1 0 10303 214 3 1 1 }'));
ENDSEC;

DATA;
#10=MECHANICAL_DESIGN_GEOMETRIC_PRESENTATION_REPRESENTATION('',(#13),#1035);
#11=SHAPE_REPRESENTATION_RELATIONSHIP('SRR','None',#1042,#12);
#12=ADVANCED_BREP_SHAPE_REPRESENTATION('',(#14),#1034);
#13=STYLED_ITEM('',(#1051),#14);
#14=MANIFOLD_SOLID_BREP('Body1',#631);
#15=CYLINDRICAL_SURFACE('',#654,5.);
#16=CYLINDRICAL_SURFACE('',#657,5.);
#17=CYLINDRICAL_SURFACE('',#660,7.5);
#18=CYLINDRICAL_SURFACE('',#663,7.5);
#19=CYLINDRICAL_SURFACE('',#671,5.5);
#20=CYLINDRICAL_SURFACE('',#673,0.999999999999996);
#21=CYLINDRICAL_SURFACE('',#675,1.);
#22=CYLINDRICAL_SURFACE('',#677,5.0990195895741);
#23=FACE_BOUND('',#90,.T.);
#24=FACE_BOUND('',#100,.T.);
#25=FACE_BOUND('',#102,.T.);
#26=FACE_BOUND('',#103,.T.);
#27=FACE_BOUND('',#104,.T.);
#28=FACE_BOUND('',#105,.T.);
#29=FACE_BOUND('',#111,.T.);
#30=FACE_BOUND('',#119,.T.);
#31=FACE_BOUND('',#121,.T.);
#32=FACE_BOUND('',#125,.T.);
#33=FACE_BOUND('',#127,.T.);
#34=FACE_BOUND('',#128,.T.);
#35=FACE_BOUND('',#129,.T.);
#36=FACE_BOUND('',#130,.T.);
#37=CIRCLE('',#650,5.);
#38=CIRCLE('',#651,7.5);
#39=CIRCLE('',#652,7.5);
#40=CIRCLE('',#653,5.);
#41=CIRCLE('',#655,5.);
#42=CIRCLE('',#658,5.);
#43=CIRCLE('',#661,7.5);
#44=CIRCLE('',#664,7.5);
#45=CIRCLE('',#668,1.);
#46=CIRCLE('',#669,0.999999999999996);
#47=CIRCLE('',#670,5.5);
#48=CIRCLE('',#672,5.5);
#49=CIRCLE('',#674,0.999999999999996);
#50=CIRCLE('',#676,1.);
#51=CIRCLE('',#678,5.0990195895741);
#52=CIRCLE('',#679,5.0990195895741);
#53=FACE_OUTER_BOUND('',#85,.T.);
#54=FACE_OUTER_BOUND('',#86,.T.);
#55=FACE_OUTER_BOUND('',#87,.T.);
#56=FACE_OUTER_BOUND('',#88,.T.);
#57=FACE_OUTER_BOUND('',#89,.T.);
#58=FACE_OUTER_BOUND('',#91,.T.);
#59=FACE_OUTER_BOUND('',#92,.T.);
#60=FACE_OUTER_BOUND('',#93,.T.);
#61=FACE_OUTER_BOUND('',#94,.T.);
#62=FACE_OUTER_BOUND('',#95,.T.);
#63=FACE_OUTER_BOUND('',#96,.T.);
#64=FACE_OUTER_BOUND('',#97,.T.);
#65=FACE_OUTER_BOUND('',#98,.T.);
#66=FACE_OUTER_BOUND('',#99,.T.);
#67=FACE_OUTER_BOUND('',#101,.T.);
#68=FACE_OUTER_BOUND('',#106,.T.);
#69=FACE_OUTER_BOUND('',#107,.T.);
#70=FACE_OUTER_BOUND('',#108,.T.);
#71=FACE_OUTER_BOUND('',#109,.T.);
#72=FACE_OUTER_BOUND('',#110,.T.);
#73=FACE_OUTER_BOUND('',#112,.T.);
#74=FACE_OUTER_BOUND('',#113,.T.);
#75=FACE_OUTER_BOUND('',#114,.T.);
#76=FACE_OUTER_BOUND('',#115,.T.);
#77=FACE_OUTER_BOUND('',#116,.T.);
#78=FACE_OUTER_BOUND('',#117,.T.);
#79=FACE_OUTER_BOUND('',#118,.T.);
#80=FACE_OUTER_BOUND('',#120,.T.);
#81=FACE_OUTER_BOUND('',#122,.T.);
#82=FACE_OUTER_BOUND('',#123,.T.);
#83=FACE_OUTER_BOUND('',#124,.T.);
#84=FACE_OUTER_BOUND('',#126,.T.);
#85=EDGE_LOOP('',(#407,#408,#409,#410));
#86=EDGE_LOOP('',(#411,#412,#413,#414));
#87=EDGE_LOOP('',(#415,#416,#417,#418));
#88=EDGE_LOOP('',(#419,#420,#421,#422));
#89=EDGE_LOOP('',(#423,#424,#425,#426,#427,#428,#429,#430));
#90=EDGE_LOOP('',(#431,#432,#433,#434));
#91=EDGE_LOOP('',(#435,#436,#437,#438));
#92=EDGE_LOOP('',(#439,#440,#441,#442));
#93=EDGE_LOOP('',(#443,#444,#445,#446));
#94=EDGE_LOOP('',(#447,#448,#449,#450));
#95=EDGE_LOOP('',(#451,#452,#453,#454));
#96=EDGE_LOOP('',(#455,#456,#457,#458));
#97=EDGE_LOOP('',(#459,#460,#461,#462));
#98=EDGE_LOOP('',(#463,#464,#465,#466));
#99=EDGE_LOOP('',(#467,#468,#469,#470));
#100=EDGE_LOOP('',(#471,#472,#473,#474));
#101=EDGE_LOOP('',(#475,#476,#477,#478));
#102=EDGE_LOOP('',(#479,#480,#481,#482));
#103=EDGE_LOOP('',(#483));
#104=EDGE_LOOP('',(#484));
#105=EDGE_LOOP('',(#485));
#106=EDGE_LOOP('',(#486,#487,#488,#489));
#107=EDGE_LOOP('',(#490,#491,#492,#493));
#108=EDGE_LOOP('',(#494,#495,#496,#497));
#109=EDGE_LOOP('',(#498,#499,#500,#501));
#110=EDGE_LOOP('',(#502,#503,#504,#505));
#111=EDGE_LOOP('',(#506));
#112=EDGE_LOOP('',(#507,#508,#509,#510));
#113=EDGE_LOOP('',(#511,#512,#513,#514));
#114=EDGE_LOOP('',(#515,#516,#517,#518));
#115=EDGE_LOOP('',(#519,#520,#521,#522));
#116=EDGE_LOOP('',(#523,#524,#525,#526));
#117=EDGE_LOOP('',(#527,#528,#529,#530));
#118=EDGE_LOOP('',(#531,#532,#533,#534));
#119=EDGE_LOOP('',(#535));
#120=EDGE_LOOP('',(#536,#537,#538,#539));
#121=EDGE_LOOP('',(#540,#541,#542,#543));
#122=EDGE_LOOP('',(#544,#545,#546,#547));
#123=EDGE_LOOP('',(#548,#549,#550,#551));
#124=EDGE_LOOP('',(#552,#553,#554,#555));
#125=EDGE_LOOP('',(#556,#557,#558,#559));
#126=EDGE_LOOP('',(#560,#561,#562,#563,#564,#565,#566,#567));
#127=EDGE_LOOP('',(#568));
#128=EDGE_LOOP('',(#569));
#129=EDGE_LOOP('',(#570));
#130=EDGE_LOOP('',(#571,#572,#573,#574));
#131=LINE('',#863,#199);
#132=LINE('',#865,#200);
#133=LINE('',#867,#201);
#134=LINE('',#868,#202);
#135=LINE('',#871,#203);
#136=LINE('',#873,#204);
#137=LINE('',#874,#205);
#138=LINE('',#877,#206);
#139=LINE('',#879,#207);
#140=LINE('',#880,#208);
#141=LINE('',#882,#209);
#142=LINE('',#883,#210);
#143=LINE('',#889,#211);
#144=LINE('',#893,#212);
#145=LINE('',#897,#213);
#146=LINE('',#900,#214);
#147=LINE('',#903,#215);
#148=LINE('',#905,#216);
#149=LINE('',#907,#217);
#150=LINE('',#908,#218);
#151=LINE('',#913,#219);
#152=LINE('',#914,#220);
#153=LINE('',#917,#221);
#154=LINE('',#918,#222);
#155=LINE('',#922,#223);
#156=LINE('',#925,#224);
#157=LINE('',#926,#225);
#158=LINE('',#929,#226);
#159=LINE('',#933,#227);
#160=LINE('',#934,#228);
#161=LINE('',#938,#229);
#162=LINE('',#942,#230);
#163=LINE('',#943,#231);
#164=LINE('',#944,#232);
#165=LINE('',#947,#233);
#166=LINE('',#948,#234);
#167=LINE('',#951,#235);
#168=LINE('',#952,#236);
#169=LINE('',#955,#237);
#170=LINE('',#957,#238);
#171=LINE('',#959,#239);
#172=LINE('',#960,#240);
#173=LINE('',#970,#241);
#174=LINE('',#974,#242);
#175=LINE('',#978,#243);
#176=LINE('',#983,#244);
#177=LINE('',#988,#245);
#178=LINE('',#990,#246);
#179=LINE('',#992,#247);
#180=LINE('',#993,#248);
#181=LINE('',#997,#249);
#182=LINE('',#998,#250);
#183=LINE('',#999,#251);
#184=LINE('',#1002,#252);
#185=LINE('',#1004,#253);
#186=LINE('',#1005,#254);
#187=LINE('',#1008,#255);
#188=LINE('',#1009,#256);
#189=LINE('',#1013,#257);
#190=LINE('',#1014,#258);
#191=LINE('',#1015,#259);
#192=LINE('',#1017,#260);
#193=LINE('',#1018,#261);
#194=LINE('',#1021,#262);
#195=LINE('',#1022,#263);
#196=LINE('',#1024,#264);
#197=LINE('',#1027,#265);
#198=LINE('',#1030,#266);
#199=VECTOR('',#697,10.);
#200=VECTOR('',#698,10.);
#201=VECTOR('',#699,10.);
#202=VECTOR('',#700,10.);
#203=VECTOR('',#703,10.);
#204=VECTOR('',#704,10.);
#205=VECTOR('',#705,10.);
#206=VECTOR('',#708,10.);
#207=VECTOR('',#709,10.);
#208=VECTOR('',#710,10.);
#209=VECTOR('',#713,10.);
#210=VECTOR('',#714,10.);
#211=VECTOR('',#719,10.);
#212=VECTOR('',#722,10.);
#213=VECTOR('',#725,10.);
#214=VECTOR('',#728,10.);
#215=VECTOR('',#729,10.);
#216=VECTOR('',#730,10.);
#217=VECTOR('',#731,10.);
#218=VECTOR('',#732,10.);
#219=VECTOR('',#737,10.);
#220=VECTOR('',#738,10.);
#221=VECTOR('',#741,10.);
#222=VECTOR('',#742,10.);
#223=VECTOR('',#747,10.);
#224=VECTOR('',#750,10.);
#225=VECTOR('',#751,10.);
#226=VECTOR('',#754,10.);
#227=VECTOR('',#759,10.);
#228=VECTOR('',#760,10.);
#229=VECTOR('',#765,10.);
#230=VECTOR('',#768,10.);
#231=VECTOR('',#769,10.);
#232=VECTOR('',#770,10.);
#233=VECTOR('',#773,10.);
#234=VECTOR('',#774,10.);
#235=VECTOR('',#777,10.);
#236=VECTOR('',#778,10.);
#237=VECTOR('',#779,10.);
#238=VECTOR('',#780,10.);
#239=VECTOR('',#781,10.);
#240=VECTOR('',#782,10.);
#241=VECTOR('',#793,5.5);
#242=VECTOR('',#798,0.999999999999996);
#243=VECTOR('',#803,1.);
#244=VECTOR('',#808,5.0990195895741);
#245=VECTOR('',#813,10.);
#246=VECTOR('',#814,10.);
#247=VECTOR('',#815,10.);
#248=VECTOR('',#816,10.);
#249=VECTOR('',#819,10.);
#250=VECTOR('',#820,10.);
#251=VECTOR('',#821,10.);
#252=VECTOR('',#824,10.);
#253=VECTOR('',#825,10.);
#254=VECTOR('',#826,10.);
#255=VECTOR('',#829,10.);
#256=VECTOR('',#830,10.);
#257=VECTOR('',#833,10.);
#258=VECTOR('',#834,10.);
#259=VECTOR('',#835,10.);
#260=VECTOR('',#838,10.);
#261=VECTOR('',#839,10.);
#262=VECTOR('',#842,10.);
#263=VECTOR('',#843,10.);
#264=VECTOR('',#846,10.);
#265=VECTOR('',#851,10.);
#266=VECTOR('',#856,10.);
#267=VERTEX_POINT('',#861);
#268=VERTEX_POINT('',#862);
#269=VERTEX_POINT('',#864);
#270=VERTEX_POINT('',#866);
#271=VERTEX_POINT('',#870);
#272=VERTEX_POINT('',#872);
#273=VERTEX_POINT('',#876);
#274=VERTEX_POINT('',#878);
#275=VERTEX_POINT('',#885);
#276=VERTEX_POINT('',#886);
#277=VERTEX_POINT('',#888);
#278=VERTEX_POINT('',#890);
#279=VERTEX_POINT('',#892);
#280=VERTEX_POINT('',#894);
#281=VERTEX_POINT('',#896);
#282=VERTEX_POINT('',#898);
#283=VERTEX_POINT('',#901);
#284=VERTEX_POINT('',#902);
#285=VERTEX_POINT('',#904);
#286=VERTEX_POINT('',#906);
#287=VERTEX_POINT('',#910);
#288=VERTEX_POINT('',#911);
#289=VERTEX_POINT('',#916);
#290=VERTEX_POINT('',#920);
#291=VERTEX_POINT('',#924);
#292=VERTEX_POINT('',#928);
#293=VERTEX_POINT('',#932);
#294=VERTEX_POINT('',#936);
#295=VERTEX_POINT('',#940);
#296=VERTEX_POINT('',#941);
#297=VERTEX_POINT('',#946);
#298=VERTEX_POINT('',#950);
#299=VERTEX_POINT('',#953);
#300=VERTEX_POINT('',#954);
#301=VERTEX_POINT('',#956);
#302=VERTEX_POINT('',#958);
#303=VERTEX_POINT('',#961);
#304=VERTEX_POINT('',#963);
#305=VERTEX_POINT('',#965);
#306=VERTEX_POINT('',#968);
#307=VERTEX_POINT('',#972);
#308=VERTEX_POINT('',#976);
#309=VERTEX_POINT('',#980);
#310=VERTEX_POINT('',#982);
#311=VERTEX_POINT('',#986);
#312=VERTEX_POINT('',#987);
#313=VERTEX_POINT('',#989);
#314=VERTEX_POINT('',#991);
#315=VERTEX_POINT('',#995);
#316=VERTEX_POINT('',#996);
#317=VERTEX_POINT('',#1001);
#318=VERTEX_POINT('',#1003);
#319=VERTEX_POINT('',#1007);
#320=VERTEX_POINT('',#1011);
#321=VERTEX_POINT('',#1012);
#322=VERTEX_POINT('',#1020);
#323=EDGE_CURVE('',#267,#268,#131,.T.);
#324=EDGE_CURVE('',#269,#267,#132,.T.);
#325=EDGE_CURVE('',#270,#269,#133,.T.);
#326=EDGE_CURVE('',#270,#268,#134,.T.);
#327=EDGE_CURVE('',#268,#271,#135,.T.);
#328=EDGE_CURVE('',#272,#270,#136,.T.);
#329=EDGE_CURVE('',#272,#271,#137,.T.);
#330=EDGE_CURVE('',#271,#273,#138,.T.);
#331=EDGE_CURVE('',#274,#272,#139,.T.);
#332=EDGE_CURVE('',#274,#273,#140,.T.);
#333=EDGE_CURVE('',#273,#267,#141,.T.);
#334=EDGE_CURVE('',#269,#274,#142,.T.);
#335=EDGE_CURVE('',#275,#276,#37,.T.);
#336=EDGE_CURVE('',#276,#277,#143,.T.);
#337=EDGE_CURVE('',#277,#278,#38,.T.);
#338=EDGE_CURVE('',#278,#279,#144,.T.);
#339=EDGE_CURVE('',#279,#280,#39,.T.);
#340=EDGE_CURVE('',#280,#281,#145,.T.);
#341=EDGE_CURVE('',#281,#282,#40,.T.);
#342=EDGE_CURVE('',#282,#275,#146,.T.);
#343=EDGE_CURVE('',#283,#284,#147,.T.);
#344=EDGE_CURVE('',#284,#285,#148,.T.);
#345=EDGE_CURVE('',#285,#286,#149,.T.);
#346=EDGE_CURVE('',#286,#283,#150,.T.);
#347=EDGE_CURVE('',#287,#288,#41,.T.);
#348=EDGE_CURVE('',#288,#276,#151,.T.);
#349=EDGE_CURVE('',#275,#287,#152,.T.);
#350=EDGE_CURVE('',#289,#282,#153,.T.);
#351=EDGE_CURVE('',#287,#289,#154,.T.);
#352=EDGE_CURVE('',#290,#289,#42,.T.);
#353=EDGE_CURVE('',#281,#290,#155,.T.);
#354=EDGE_CURVE('',#291,#280,#156,.T.);
#355=EDGE_CURVE('',#290,#291,#157,.T.);
#356=EDGE_CURVE('',#292,#279,#158,.T.);
#357=EDGE_CURVE('',#292,#291,#43,.T.);
#358=EDGE_CURVE('',#293,#278,#159,.T.);
#359=EDGE_CURVE('',#293,#292,#160,.T.);
#360=EDGE_CURVE('',#294,#293,#44,.T.);
#361=EDGE_CURVE('',#277,#294,#161,.T.);
#362=EDGE_CURVE('',#295,#296,#162,.T.);
#363=EDGE_CURVE('',#283,#295,#163,.T.);
#364=EDGE_CURVE('',#296,#286,#164,.T.);
#365=EDGE_CURVE('',#295,#297,#165,.T.);
#366=EDGE_CURVE('',#284,#297,#166,.T.);
#367=EDGE_CURVE('',#298,#296,#167,.T.);
#368=EDGE_CURVE('',#297,#298,#168,.T.);
#369=EDGE_CURVE('',#299,#300,#169,.T.);
#370=EDGE_CURVE('',#301,#299,#170,.T.);
#371=EDGE_CURVE('',#302,#301,#171,.T.);
#372=EDGE_CURVE('',#300,#302,#172,.T.);
#373=EDGE_CURVE('',#303,#303,#45,.T.);
#374=EDGE_CURVE('',#304,#304,#46,.T.);
#375=EDGE_CURVE('',#305,#305,#47,.T.);
#376=EDGE_CURVE('',#306,#306,#48,.T.);
#377=EDGE_CURVE('',#306,#305,#173,.T.);
#378=EDGE_CURVE('',#307,#307,#49,.T.);
#379=EDGE_CURVE('',#307,#304,#174,.T.);
#380=EDGE_CURVE('',#308,#308,#50,.T.);
#381=EDGE_CURVE('',#308,#303,#175,.T.);
#382=EDGE_CURVE('',#309,#309,#51,.T.);
#383=EDGE_CURVE('',#309,#310,#176,.T.);
#384=EDGE_CURVE('',#310,#310,#52,.T.);
#385=EDGE_CURVE('',#311,#312,#177,.T.);
#386=EDGE_CURVE('',#311,#313,#178,.T.);
#387=EDGE_CURVE('',#313,#314,#179,.T.);
#388=EDGE_CURVE('',#312,#314,#180,.T.);
#389=EDGE_CURVE('',#315,#316,#181,.T.);
#390=EDGE_CURVE('',#315,#311,#182,.T.);
#391=EDGE_CURVE('',#316,#312,#183,.T.);
#392=EDGE_CURVE('',#317,#301,#184,.T.);
#393=EDGE_CURVE('',#318,#317,#185,.T.);
#394=EDGE_CURVE('',#318,#302,#186,.T.);
#395=EDGE_CURVE('',#319,#299,#187,.T.);
#396=EDGE_CURVE('',#317,#319,#188,.T.);
#397=EDGE_CURVE('',#320,#321,#189,.T.);
#398=EDGE_CURVE('',#320,#315,#190,.T.);
#399=EDGE_CURVE('',#321,#316,#191,.T.);
#400=EDGE_CURVE('',#313,#320,#192,.T.);
#401=EDGE_CURVE('',#314,#321,#193,.T.);
#402=EDGE_CURVE('',#322,#300,#194,.T.);
#403=EDGE_CURVE('',#319,#322,#195,.T.);
#404=EDGE_CURVE('',#322,#318,#196,.T.);
#405=EDGE_CURVE('',#298,#285,#197,.T.);
#406=EDGE_CURVE('',#288,#294,#198,.T.);
#407=ORIENTED_EDGE('',*,*,#323,.F.);
#408=ORIENTED_EDGE('',*,*,#324,.F.);
#409=ORIENTED_EDGE('',*,*,#325,.F.);
#410=ORIENTED_EDGE('',*,*,#326,.T.);
#411=ORIENTED_EDGE('',*,*,#327,.F.);
#412=ORIENTED_EDGE('',*,*,#326,.F.);
#413=ORIENTED_EDGE('',*,*,#328,.F.);
#414=ORIENTED_EDGE('',*,*,#329,.T.);
#415=ORIENTED_EDGE('',*,*,#330,.F.);
#416=ORIENTED_EDGE('',*,*,#329,.F.);
#417=ORIENTED_EDGE('',*,*,#331,.F.);
#418=ORIENTED_EDGE('',*,*,#332,.T.);
#419=ORIENTED_EDGE('',*,*,#333,.F.);
#420=ORIENTED_EDGE('',*,*,#332,.F.);
#421=ORIENTED_EDGE('',*,*,#334,.F.);
#422=ORIENTED_EDGE('',*,*,#324,.T.);
#423=ORIENTED_EDGE('',*,*,#335,.T.);
#424=ORIENTED_EDGE('',*,*,#336,.T.);
#425=ORIENTED_EDGE('',*,*,#337,.T.);
#426=ORIENTED_EDGE('',*,*,#338,.T.);
#427=ORIENTED_EDGE('',*,*,#339,.T.);
#428=ORIENTED_EDGE('',*,*,#340,.T.);
#429=ORIENTED_EDGE('',*,*,#341,.T.);
#430=ORIENTED_EDGE('',*,*,#342,.T.);
#431=ORIENTED_EDGE('',*,*,#343,.T.);
#432=ORIENTED_EDGE('',*,*,#344,.T.);
#433=ORIENTED_EDGE('',*,*,#345,.T.);
#434=ORIENTED_EDGE('',*,*,#346,.T.);
#435=ORIENTED_EDGE('',*,*,#347,.T.);
#436=ORIENTED_EDGE('',*,*,#348,.T.);
#437=ORIENTED_EDGE('',*,*,#335,.F.);
#438=ORIENTED_EDGE('',*,*,#349,.T.);
#439=ORIENTED_EDGE('',*,*,#349,.F.);
#440=ORIENTED_EDGE('',*,*,#342,.F.);
#441=ORIENTED_EDGE('',*,*,#350,.F.);
#442=ORIENTED_EDGE('',*,*,#351,.F.);
#443=ORIENTED_EDGE('',*,*,#352,.T.);
#444=ORIENTED_EDGE('',*,*,#350,.T.);
#445=ORIENTED_EDGE('',*,*,#341,.F.);
#446=ORIENTED_EDGE('',*,*,#353,.T.);
#447=ORIENTED_EDGE('',*,*,#353,.F.);
#448=ORIENTED_EDGE('',*,*,#340,.F.);
#449=ORIENTED_EDGE('',*,*,#354,.F.);
#450=ORIENTED_EDGE('',*,*,#355,.F.);
#451=ORIENTED_EDGE('',*,*,#356,.F.);
#452=ORIENTED_EDGE('',*,*,#357,.T.);
#453=ORIENTED_EDGE('',*,*,#354,.T.);
#454=ORIENTED_EDGE('',*,*,#339,.F.);
#455=ORIENTED_EDGE('',*,*,#356,.T.);
#456=ORIENTED_EDGE('',*,*,#338,.F.);
#457=ORIENTED_EDGE('',*,*,#358,.F.);
#458=ORIENTED_EDGE('',*,*,#359,.T.);
#459=ORIENTED_EDGE('',*,*,#360,.T.);
#460=ORIENTED_EDGE('',*,*,#358,.T.);
#461=ORIENTED_EDGE('',*,*,#337,.F.);
#462=ORIENTED_EDGE('',*,*,#361,.T.);
#463=ORIENTED_EDGE('',*,*,#362,.F.);
#464=ORIENTED_EDGE('',*,*,#363,.F.);
#465=ORIENTED_EDGE('',*,*,#346,.F.);
#466=ORIENTED_EDGE('',*,*,#364,.F.);
#467=ORIENTED_EDGE('',*,*,#363,.T.);
#468=ORIENTED_EDGE('',*,*,#365,.T.);
#469=ORIENTED_EDGE('',*,*,#366,.F.);
#470=ORIENTED_EDGE('',*,*,#343,.F.);
#471=ORIENTED_EDGE('',*,*,#330,.T.);
#472=ORIENTED_EDGE('',*,*,#333,.T.);
#473=ORIENTED_EDGE('',*,*,#323,.T.);
#474=ORIENTED_EDGE('',*,*,#327,.T.);
#475=ORIENTED_EDGE('',*,*,#362,.T.);
#476=ORIENTED_EDGE('',*,*,#367,.F.);
#477=ORIENTED_EDGE('',*,*,#368,.F.);
#478=ORIENTED_EDGE('',*,*,#365,.F.);
#479=ORIENTED_EDGE('',*,*,#369,.F.);
#480=ORIENTED_EDGE('',*,*,#370,.F.);
#481=ORIENTED_EDGE('',*,*,#371,.F.);
#482=ORIENTED_EDGE('',*,*,#372,.F.);
#483=ORIENTED_EDGE('',*,*,#373,.T.);
#484=ORIENTED_EDGE('',*,*,#374,.T.);
#485=ORIENTED_EDGE('',*,*,#375,.T.);
#486=ORIENTED_EDGE('',*,*,#376,.F.);
#487=ORIENTED_EDGE('',*,*,#377,.T.);
#488=ORIENTED_EDGE('',*,*,#375,.F.);
#489=ORIENTED_EDGE('',*,*,#377,.F.);
#490=ORIENTED_EDGE('',*,*,#378,.F.);
#491=ORIENTED_EDGE('',*,*,#379,.T.);
#492=ORIENTED_EDGE('',*,*,#374,.F.);
#493=ORIENTED_EDGE('',*,*,#379,.F.);
#494=ORIENTED_EDGE('',*,*,#380,.F.);
#495=ORIENTED_EDGE('',*,*,#381,.T.);
#496=ORIENTED_EDGE('',*,*,#373,.F.);
#497=ORIENTED_EDGE('',*,*,#381,.F.);
#498=ORIENTED_EDGE('',*,*,#382,.F.);
#499=ORIENTED_EDGE('',*,*,#383,.T.);
#500=ORIENTED_EDGE('',*,*,#384,.F.);
#501=ORIENTED_EDGE('',*,*,#383,.F.);
#502=ORIENTED_EDGE('',*,*,#385,.F.);
#503=ORIENTED_EDGE('',*,*,#386,.T.);
#504=ORIENTED_EDGE('',*,*,#387,.T.);
#505=ORIENTED_EDGE('',*,*,#388,.F.);
#506=ORIENTED_EDGE('',*,*,#384,.T.);
#507=ORIENTED_EDGE('',*,*,#389,.F.);
#508=ORIENTED_EDGE('',*,*,#390,.T.);
#509=ORIENTED_EDGE('',*,*,#385,.T.);
#510=ORIENTED_EDGE('',*,*,#391,.F.);
#511=ORIENTED_EDGE('',*,*,#371,.T.);
#512=ORIENTED_EDGE('',*,*,#392,.F.);
#513=ORIENTED_EDGE('',*,*,#393,.F.);
#514=ORIENTED_EDGE('',*,*,#394,.T.);
#515=ORIENTED_EDGE('',*,*,#370,.T.);
#516=ORIENTED_EDGE('',*,*,#395,.F.);
#517=ORIENTED_EDGE('',*,*,#396,.F.);
#518=ORIENTED_EDGE('',*,*,#392,.T.);
#519=ORIENTED_EDGE('',*,*,#397,.F.);
#520=ORIENTED_EDGE('',*,*,#398,.T.);
#521=ORIENTED_EDGE('',*,*,#389,.T.);
#522=ORIENTED_EDGE('',*,*,#399,.F.);
#523=ORIENTED_EDGE('',*,*,#387,.F.);
#524=ORIENTED_EDGE('',*,*,#400,.T.);
#525=ORIENTED_EDGE('',*,*,#397,.T.);
#526=ORIENTED_EDGE('',*,*,#401,.F.);
#527=ORIENTED_EDGE('',*,*,#369,.T.);
#528=ORIENTED_EDGE('',*,*,#402,.F.);
#529=ORIENTED_EDGE('',*,*,#403,.F.);
#530=ORIENTED_EDGE('',*,*,#395,.T.);
#531=ORIENTED_EDGE('',*,*,#372,.T.);
#532=ORIENTED_EDGE('',*,*,#394,.F.);
#533=ORIENTED_EDGE('',*,*,#404,.F.);
#534=ORIENTED_EDGE('',*,*,#402,.T.);
#535=ORIENTED_EDGE('',*,*,#382,.T.);
#536=ORIENTED_EDGE('',*,*,#396,.T.);
#537=ORIENTED_EDGE('',*,*,#403,.T.);
#538=ORIENTED_EDGE('',*,*,#404,.T.);
#539=ORIENTED_EDGE('',*,*,#393,.T.);
#540=ORIENTED_EDGE('',*,*,#390,.F.);
#541=ORIENTED_EDGE('',*,*,#398,.F.);
#542=ORIENTED_EDGE('',*,*,#400,.F.);
#543=ORIENTED_EDGE('',*,*,#386,.F.);
#544=ORIENTED_EDGE('',*,*,#368,.T.);
#545=ORIENTED_EDGE('',*,*,#405,.T.);
#546=ORIENTED_EDGE('',*,*,#344,.F.);
#547=ORIENTED_EDGE('',*,*,#366,.T.);
#548=ORIENTED_EDGE('',*,*,#364,.T.);
#549=ORIENTED_EDGE('',*,*,#345,.F.);
#550=ORIENTED_EDGE('',*,*,#405,.F.);
#551=ORIENTED_EDGE('',*,*,#367,.T.);
#552=ORIENTED_EDGE('',*,*,#348,.F.);
#553=ORIENTED_EDGE('',*,*,#406,.T.);
#554=ORIENTED_EDGE('',*,*,#361,.F.);
#555=ORIENTED_EDGE('',*,*,#336,.F.);
#556=ORIENTED_EDGE('',*,*,#331,.T.);
#557=ORIENTED_EDGE('',*,*,#328,.T.);
#558=ORIENTED_EDGE('',*,*,#325,.T.);
#559=ORIENTED_EDGE('',*,*,#334,.T.);
#560=ORIENTED_EDGE('',*,*,#347,.F.);
#561=ORIENTED_EDGE('',*,*,#351,.T.);
#562=ORIENTED_EDGE('',*,*,#352,.F.);
#563=ORIENTED_EDGE('',*,*,#355,.T.);
#564=ORIENTED_EDGE('',*,*,#357,.F.);
#565=ORIENTED_EDGE('',*,*,#359,.F.);
#566=ORIENTED_EDGE('',*,*,#360,.F.);
#567=ORIENTED_EDGE('',*,*,#406,.F.);
#568=ORIENTED_EDGE('',*,*,#376,.T.);
#569=ORIENTED_EDGE('',*,*,#378,.T.);
#570=ORIENTED_EDGE('',*,*,#380,.T.);
#571=ORIENTED_EDGE('',*,*,#391,.T.);
#572=ORIENTED_EDGE('',*,*,#388,.T.);
#573=ORIENTED_EDGE('',*,*,#401,.T.);
#574=ORIENTED_EDGE('',*,*,#399,.T.);
#575=PLANE('',#645);
#576=PLANE('',#646);
#577=PLANE('',#647);
#578=PLANE('',#648);
#579=PLANE('',#649);
#580=PLANE('',#656);
#581=PLANE('',#659);
#582=PLANE('',#662);
#583=PLANE('',#665);
#584=PLANE('',#666);
#585=PLANE('',#667);
#586=PLANE('',#680);
#587=PLANE('',#681);
#588=PLANE('',#682);
#589=PLANE('',#683);
#590=PLANE('',#684);
#591=PLANE('',#685);
#592=PLANE('',#686);
#593=PLANE('',#687);
#594=PLANE('',#688);
#595=PLANE('',#689);
#596=PLANE('',#690);
#597=PLANE('',#691);
#598=PLANE('',#692);
#599=ADVANCED_FACE('',(#53),#575,.F.);
#600=ADVANCED_FACE('',(#54),#576,.F.);
#601=ADVANCED_FACE('',(#55),#577,.F.);
#602=ADVANCED_FACE('',(#56),#578,.F.);
#603=ADVANCED_FACE('',(#57,#23),#579,.F.);
#604=ADVANCED_FACE('',(#58),#15,.T.);
#605=ADVANCED_FACE('',(#59),#580,.T.);
#606=ADVANCED_FACE('',(#60),#16,.T.);
#607=ADVANCED_FACE('',(#61),#581,.T.);
#608=ADVANCED_FACE('',(#62),#17,.T.);
#609=ADVANCED_FACE('',(#63),#582,.T.);
#610=ADVANCED_FACE('',(#64),#18,.T.);
#611=ADVANCED_FACE('',(#65),#583,.T.);
#612=ADVANCED_FACE('',(#66,#24),#584,.T.);
#613=ADVANCED_FACE('',(#67,#25,#26,#27,#28),#585,.T.);
#614=ADVANCED_FACE('',(#68),#19,.F.);
#615=ADVANCED_FACE('',(#69),#20,.F.);
#616=ADVANCED_FACE('',(#70),#21,.F.);
#617=ADVANCED_FACE('',(#71),#22,.F.);
#618=ADVANCED_FACE('',(#72,#29),#586,.T.);
#619=ADVANCED_FACE('',(#73),#587,.T.);
#620=ADVANCED_FACE('',(#74),#588,.T.);
#621=ADVANCED_FACE('',(#75),#589,.T.);
#622=ADVANCED_FACE('',(#76),#590,.T.);
#623=ADVANCED_FACE('',(#77),#591,.T.);
#624=ADVANCED_FACE('',(#78),#592,.T.);
#625=ADVANCED_FACE('',(#79,#30),#593,.T.);
#626=ADVANCED_FACE('',(#80,#31),#594,.F.);
#627=ADVANCED_FACE('',(#81),#595,.T.);
#628=ADVANCED_FACE('',(#82),#596,.T.);
#629=ADVANCED_FACE('',(#83,#32),#597,.T.);
#630=ADVANCED_FACE('',(#84,#33,#34,#35,#36),#598,.T.);
#631=CLOSED_SHELL('',(#599,#600,#601,#602,#603,#604,#605,#606,#607,#608,
#609,#610,#611,#612,#613,#614,#615,#616,#617,#618,#619,#620,#621,#622,#623,
#624,#625,#626,#627,#628,#629,#630));
#632=DERIVED_UNIT_ELEMENT(#634,1.);
#633=DERIVED_UNIT_ELEMENT(#1037,-3.);
#634=(
MASS_UNIT()
NAMED_UNIT(*)
SI_UNIT(.KILO.,.GRAM.)
);
#635=DERIVED_UNIT((#632,#633));
#636=MEASURE_REPRESENTATION_ITEM('density measure',
POSITIVE_RATIO_MEASURE(7850.),#635);
#637=PROPERTY_DEFINITION_REPRESENTATION(#642,#639);
#638=PROPERTY_DEFINITION_REPRESENTATION(#643,#640);
#639=REPRESENTATION('material name',(#641),#1034);
#640=REPRESENTATION('density',(#636),#1034);
#641=DESCRIPTIVE_REPRESENTATION_ITEM('Steel','Steel');
#642=PROPERTY_DEFINITION('material property','material name',#1044);
#643=PROPERTY_DEFINITION('material property','density of part',#1044);
#644=AXIS2_PLACEMENT_3D('',#859,#693,#694);
#645=AXIS2_PLACEMENT_3D('',#860,#695,#696);
#646=AXIS2_PLACEMENT_3D('',#869,#701,#702);
#647=AXIS2_PLACEMENT_3D('',#875,#706,#707);
#648=AXIS2_PLACEMENT_3D('',#881,#711,#712);
#649=AXIS2_PLACEMENT_3D('',#884,#715,#716);
#650=AXIS2_PLACEMENT_3D('',#887,#717,#718);
#651=AXIS2_PLACEMENT_3D('',#891,#720,#721);
#652=AXIS2_PLACEMENT_3D('',#895,#723,#724);
#653=AXIS2_PLACEMENT_3D('',#899,#726,#727);
#654=AXIS2_PLACEMENT_3D('',#909,#733,#734);
#655=AXIS2_PLACEMENT_3D('',#912,#735,#736);
#656=AXIS2_PLACEMENT_3D('',#915,#739,#740);
#657=AXIS2_PLACEMENT_3D('',#919,#743,#744);
#658=AXIS2_PLACEMENT_3D('',#921,#745,#746);
#659=AXIS2_PLACEMENT_3D('',#923,#748,#749);
#660=AXIS2_PLACEMENT_3D('',#927,#752,#753);
#661=AXIS2_PLACEMENT_3D('',#930,#755,#756);
#662=AXIS2_PLACEMENT_3D('',#931,#757,#758);
#663=AXIS2_PLACEMENT_3D('',#935,#761,#762);
#664=AXIS2_PLACEMENT_3D('',#937,#763,#764);
#665=AXIS2_PLACEMENT_3D('',#939,#766,#767);
#666=AXIS2_PLACEMENT_3D('',#945,#771,#772);
#667=AXIS2_PLACEMENT_3D('',#949,#775,#776);
#668=AXIS2_PLACEMENT_3D('',#962,#783,#784);
#669=AXIS2_PLACEMENT_3D('',#964,#785,#786);
#670=AXIS2_PLACEMENT_3D('',#966,#787,#788);
#671=AXIS2_PLACEMENT_3D('',#967,#789,#790);
#672=AXIS2_PLACEMENT_3D('',#969,#791,#792);
#673=AXIS2_PLACEMENT_3D('',#971,#794,#795);
#674=AXIS2_PLACEMENT_3D('',#973,#796,#797);
#675=AXIS2_PLACEMENT_3D('',#975,#799,#800);
#676=AXIS2_PLACEMENT_3D('',#977,#801,#802);
#677=AXIS2_PLACEMENT_3D('',#979,#804,#805);
#678=AXIS2_PLACEMENT_3D('',#981,#806,#807);
#679=AXIS2_PLACEMENT_3D('',#984,#809,#810);
#680=AXIS2_PLACEMENT_3D('',#985,#811,#812);
#681=AXIS2_PLACEMENT_3D('',#994,#817,#818);
#682=AXIS2_PLACEMENT_3D('',#1000,#822,#823);
#683=AXIS2_PLACEMENT_3D('',#1006,#827,#828);
#684=AXIS2_PLACEMENT_3D('',#1010,#831,#832);
#685=AXIS2_PLACEMENT_3D('',#1016,#836,#837);
#686=AXIS2_PLACEMENT_3D('',#1019,#840,#841);
#687=AXIS2_PLACEMENT_3D('',#1023,#844,#845);
#688=AXIS2_PLACEMENT_3D('',#1025,#847,#848);
#689=AXIS2_PLACEMENT_3D('',#1026,#849,#850);
#690=AXIS2_PLACEMENT_3D('',#1028,#852,#853);
#691=AXIS2_PLACEMENT_3D('',#1029,#854,#855);
#692=AXIS2_PLACEMENT_3D('',#1031,#857,#858);
#693=DIRECTION('axis',(0.,0.,1.));
#694=DIRECTION('refdir',(1.,0.,0.));
#695=DIRECTION('center_axis',(0.,1.,0.));
#696=DIRECTION('ref_axis',(0.,0.,1.));
#697=DIRECTION('',(0.,0.,-1.));
#698=DIRECTION('',(1.,0.,0.));
#699=DIRECTION('',(0.,0.,1.));
#700=DIRECTION('',(1.,0.,0.));
#701=DIRECTION('center_axis',(0.,0.,-1.));
#702=DIRECTION('ref_axis',(0.,1.,0.));
#703=DIRECTION('',(0.,-1.,0.));
#704=DIRECTION('',(0.,1.,0.));
#705=DIRECTION('',(1.,0.,0.));
#706=DIRECTION('center_axis',(0.,-1.,0.));
#707=DIRECTION('ref_axis',(0.,0.,-1.));
#708=DIRECTION('',(0.,0.,1.));
#709=DIRECTION('',(0.,0.,-1.));
#710=DIRECTION('',(1.,0.,0.));
#711=DIRECTION('center_axis',(0.,0.,1.));
#712=DIRECTION('ref_axis',(0.,-1.,0.));
#713=DIRECTION('',(0.,1.,0.));
#714=DIRECTION('',(0.,-1.,0.));
#715=DIRECTION('center_axis',(0.,0.,1.));
#716=DIRECTION('ref_axis',(1.,0.,0.));
#717=DIRECTION('center_axis',(0.,0.,-1.));
#718=DIRECTION('ref_axis',(-0.707106781186547,-0.707106781186548,0.));
#719=DIRECTION('',(0.,1.,0.));
#720=DIRECTION('center_axis',(0.,0.,-1.));
#721=DIRECTION('ref_axis',(-0.707106781186547,0.707106781186547,0.));
#722=DIRECTION('',(1.,1.20024110770287E-16,0.));
#723=DIRECTION('center_axis',(0.,0.,-1.));
#724=DIRECTION('ref_axis',(0.707106781186547,0.707106781186547,0.));
#725=DIRECTION('',(0.,-1.,0.));
#726=DIRECTION('center_axis',(0.,0.,-1.));
#727=DIRECTION('ref_axis',(0.707106781186547,-0.707106781186547,0.));
#728=DIRECTION('',(-1.,-2.40048221540574E-16,0.));
#729=DIRECTION('',(0.,-1.,0.));
#730=DIRECTION('',(1.,0.,0.));
#731=DIRECTION('',(0.,1.,0.));
#732=DIRECTION('',(-1.,0.,0.));
#733=DIRECTION('center_axis',(0.,0.,1.));
#734=DIRECTION('ref_axis',(-0.707106781186547,-0.707106781186548,0.));
#735=DIRECTION('center_axis',(0.,0.,-1.));
#736=DIRECTION('ref_axis',(-0.707106781186547,-0.707106781186548,0.));
#737=DIRECTION('',(0.,0.,-1.));
#738=DIRECTION('',(0.,0.,1.));
#739=DIRECTION('center_axis',(2.40048221540574E-16,-1.,0.));
#740=DIRECTION('ref_axis',(1.,2.40048221540574E-16,0.));
#741=DIRECTION('',(0.,0.,-1.));
#742=DIRECTION('',(1.,2.40048221540574E-16,0.));
#743=DIRECTION('center_axis',(0.,0.,1.));
#744=DIRECTION('ref_axis',(0.707106781186547,-0.707106781186547,0.));
#745=DIRECTION('center_axis',(0.,0.,-1.));
#746=DIRECTION('ref_axis',(0.707106781186547,-0.707106781186547,0.));
#747=DIRECTION('',(0.,0.,1.));
#748=DIRECTION('center_axis',(1.,0.,0.));
#749=DIRECTION('ref_axis',(0.,1.,0.));
#750=DIRECTION('',(0.,0.,-1.));
#751=DIRECTION('',(0.,1.,0.));
#752=DIRECTION('center_axis',(0.,0.,-1.));
#753=DIRECTION('ref_axis',(0.707106781186547,0.707106781186547,0.));
#754=DIRECTION('',(0.,0.,-1.));
#755=DIRECTION('center_axis',(0.,0.,-1.));
#756=DIRECTION('ref_axis',(0.707106781186547,0.707106781186547,0.));
#757=DIRECTION('center_axis',(0.,1.,0.));
#758=DIRECTION('ref_axis',(0.,0.,1.));
#759=DIRECTION('',(0.,0.,-1.));
#760=DIRECTION('',(1.,1.20024110770287E-16,0.));
#761=DIRECTION('center_axis',(0.,0.,1.));
#762=DIRECTION('ref_axis',(-0.707106781186547,0.707106781186547,0.));
#763=DIRECTION('center_axis',(0.,0.,-1.));
#764=DIRECTION('ref_axis',(-0.707106781186547,0.707106781186547,0.));
#765=DIRECTION('',(0.,0.,1.));
#766=DIRECTION('center_axis',(0.,-1.,0.));
#767=DIRECTION('ref_axis',(-1.,0.,0.));
#768=DIRECTION('',(1.,0.,0.));
#769=DIRECTION('',(0.,0.,1.));
#770=DIRECTION('',(0.,0.,-1.));
#771=DIRECTION('center_axis',(1.,0.,0.));
#772=DIRECTION('ref_axis',(0.,1.,0.));
#773=DIRECTION('',(0.,-1.,0.));
#774=DIRECTION('',(0.,0.,1.));
#775=DIRECTION('center_axis',(0.,0.,-1.));
#776=DIRECTION('ref_axis',(-1.,0.,0.));
#777=DIRECTION('',(0.,1.,0.));
#778=DIRECTION('',(1.,0.,0.));
#779=DIRECTION('',(-1.,0.,0.));
#780=DIRECTION('',(0.,-1.,0.));
#781=DIRECTION('',(1.,0.,0.));
#782=DIRECTION('',(0.,1.,0.));
#783=DIRECTION('center_axis',(0.,0.,1.));
#784=DIRECTION('ref_axis',(-1.,0.,0.));
#785=DIRECTION('center_axis',(0.,0.,1.));
#786=DIRECTION('ref_axis',(-1.,0.,0.));
#787=DIRECTION('center_axis',(0.,0.,1.));
#788=DIRECTION('ref_axis',(-1.,0.,0.));
#789=DIRECTION('center_axis',(0.,0.,-1.));
#790=DIRECTION('ref_axis',(-1.,0.,0.));
#791=DIRECTION('center_axis',(0.,0.,-1.));
#792=DIRECTION('ref_axis',(-1.,0.,0.));
#793=DIRECTION('',(0.,0.,-1.));
#794=DIRECTION('center_axis',(0.,0.,-1.));
#795=DIRECTION('ref_axis',(-1.,0.,0.));
#796=DIRECTION('center_axis',(0.,0.,-1.));
#797=DIRECTION('ref_axis',(-1.,0.,0.));
#798=DIRECTION('',(0.,0.,-1.));
#799=DIRECTION('center_axis',(0.,0.,-1.));
#800=DIRECTION('ref_axis',(-1.,0.,0.));
#801=DIRECTION('center_axis',(0.,0.,-1.));
#802=DIRECTION('ref_axis',(-1.,0.,0.));
#803=DIRECTION('',(0.,0.,-1.));
#804=DIRECTION('center_axis',(1.,0.,0.));
#805=DIRECTION('ref_axis',(0.,-1.,0.));
#806=DIRECTION('center_axis',(1.,0.,0.));
#807=DIRECTION('ref_axis',(0.,-1.,0.));
#808=DIRECTION('',(1.,0.,0.));
#809=DIRECTION('center_axis',(-1.,0.,0.));
#810=DIRECTION('ref_axis',(0.,-1.,0.));
#811=DIRECTION('center_axis',(1.,0.,0.));
#812=DIRECTION('ref_axis',(0.,1.,0.));
#813=DIRECTION('',(0.,0.,1.));
#814=DIRECTION('',(0.,1.,0.));
#815=DIRECTION('',(0.,0.,1.));
#816=DIRECTION('',(0.,1.,0.));
#817=DIRECTION('center_axis',(0.,1.,0.));
#818=DIRECTION('ref_axis',(-1.,0.,0.));
#819=DIRECTION('',(0.,0.,1.));
#820=DIRECTION('',(-1.,0.,0.));
#821=DIRECTION('',(-1.,0.,0.));
#822=DIRECTION('center_axis',(0.,1.,0.));
#823=DIRECTION('ref_axis',(-1.,0.,0.));
#824=DIRECTION('',(0.,0.,1.));
#825=DIRECTION('',(1.,0.,0.));
#826=DIRECTION('',(0.,0.,1.));
#827=DIRECTION('center_axis',(1.,0.,0.));
#828=DIRECTION('ref_axis',(0.,1.,0.));
#829=DIRECTION('',(0.,0.,1.));
#830=DIRECTION('',(0.,-1.,0.));
#831=DIRECTION('center_axis',(-1.,0.,0.));
#832=DIRECTION('ref_axis',(0.,-1.,0.));
#833=DIRECTION('',(0.,0.,1.));
#834=DIRECTION('',(0.,-1.,0.));
#835=DIRECTION('',(0.,-1.,0.));
#836=DIRECTION('center_axis',(0.,-1.,0.));
#837=DIRECTION('ref_axis',(1.,0.,0.));
#838=DIRECTION('',(1.,0.,0.));
#839=DIRECTION('',(1.,0.,0.));
#840=DIRECTION('center_axis',(0.,-1.,0.));
#841=DIRECTION('ref_axis',(1.,0.,0.));
#842=DIRECTION('',(0.,0.,1.));
#843=DIRECTION('',(-1.,0.,0.));
#844=DIRECTION('center_axis',(-1.,0.,0.));
#845=DIRECTION('ref_axis',(0.,-1.,0.));
#846=DIRECTION('',(0.,1.,0.));
#847=DIRECTION('center_axis',(0.,0.,1.));
#848=DIRECTION('ref_axis',(1.,0.,0.));
#849=DIRECTION('center_axis',(0.,1.,0.));
#850=DIRECTION('ref_axis',(-1.,0.,0.));
#851=DIRECTION('',(0.,0.,-1.));
#852=DIRECTION('center_axis',(-1.,0.,0.));
#853=DIRECTION('ref_axis',(0.,-1.,0.));
#854=DIRECTION('center_axis',(-1.,0.,0.));
#855=DIRECTION('ref_axis',(0.,-1.,0.));
#856=DIRECTION('',(0.,1.,0.));
#857=DIRECTION('center_axis',(0.,0.,1.));
#858=DIRECTION('ref_axis',(1.,0.,0.));
#859=CARTESIAN_POINT('',(0.,0.,0.));
#860=CARTESIAN_POINT('Origin',(-19.3465650352717,35.,-8.));
#861=CARTESIAN_POINT('',(-17.3465650352717,35.,0.));
#862=CARTESIAN_POINT('',(-17.3465650352717,35.,-8.));
#863=CARTESIAN_POINT('',(-17.3465650352717,35.,-4.));
#864=CARTESIAN_POINT('',(-19.3465650352717,35.,0.));
#865=CARTESIAN_POINT('',(-19.3465650352717,35.,0.));
#866=CARTESIAN_POINT('',(-19.3465650352717,35.,-8.));
#867=CARTESIAN_POINT('',(-19.3465650352717,35.,-4.));
#868=CARTESIAN_POINT('',(-19.3465650352717,35.,-8.));
#869=CARTESIAN_POINT('Origin',(-19.3465650352717,15.,-8.));
#870=CARTESIAN_POINT('',(-17.3465650352717,15.,-8.));
#871=CARTESIAN_POINT('',(-17.3465650352717,-31.6488285022517,-8.));
#872=CARTESIAN_POINT('',(-19.3465650352717,15.,-8.));
#873=CARTESIAN_POINT('',(-19.3465650352717,24.3511714977483,-8.));
#874=CARTESIAN_POINT('',(-19.3465650352717,15.,-8.));
#875=CARTESIAN_POINT('Origin',(-19.3465650352717,15.,0.));
#876=CARTESIAN_POINT('',(-17.3465650352717,15.,0.));
#877=CARTESIAN_POINT('',(-17.3465650352717,15.,0.));
#878=CARTESIAN_POINT('',(-19.3465650352717,15.,0.));
#879=CARTESIAN_POINT('',(-19.3465650352717,15.,0.));
#880=CARTESIAN_POINT('',(-19.3465650352717,15.,0.));
#881=CARTESIAN_POINT('Origin',(-19.3465650352717,35.,0.));
#882=CARTESIAN_POINT('',(-17.3465650352717,-21.6488285022517,0.));
#883=CARTESIAN_POINT('',(-19.3465650352717,34.3511714977483,0.));
#884=CARTESIAN_POINT('Origin',(17.6534349647283,-23.2976570045034,-10.));
#885=CARTESIAN_POINT('',(-14.3465650352717,-80.2976570045034,-10.));
#886=CARTESIAN_POINT('',(-19.3465650352717,-75.2976570045034,-10.));
#887=CARTESIAN_POINT('Origin',(-14.3465650352717,-75.2976570045034,-10.));
#888=CARTESIAN_POINT('',(-19.3465650352717,41.2023429954966,-10.));
#889=CARTESIAN_POINT('',(-19.3465650352717,33.7023429954966,-10.));
#890=CARTESIAN_POINT('',(-11.8465650352717,48.7023429954966,-10.));
#891=CARTESIAN_POINT('Origin',(-11.8465650352717,41.2023429954966,-10.));
#892=CARTESIAN_POINT('',(47.1534349647283,48.7023429954966,-10.));
#893=CARTESIAN_POINT('',(-19.3465650352717,48.7023429954966,-10.));
#894=CARTESIAN_POINT('',(54.6534349647283,41.2023429954966,-10.));
#895=CARTESIAN_POINT('Origin',(47.1534349647283,41.2023429954966,-10.));
#896=CARTESIAN_POINT('',(54.6534349647283,-75.2976570045034,-10.));
#897=CARTESIAN_POINT('',(54.6534349647283,33.7023429954966,-10.));
#898=CARTESIAN_POINT('',(49.6534349647283,-80.2976570045034,-10.));
#899=CARTESIAN_POINT('Origin',(49.6534349647283,-75.2976570045034,-10.));
#900=CARTESIAN_POINT('',(54.6534349647283,-80.2976570045034,-10.));
#901=CARTESIAN_POINT('',(-17.3465650352717,43.7023429954966,-10.));
#902=CARTESIAN_POINT('',(-17.3465650352717,-78.2976570045034,-10.));
#903=CARTESIAN_POINT('',(-17.3465650352717,33.7023429954966,-10.));
#904=CARTESIAN_POINT('',(52.6534349647283,-78.2976570045034,-10.));
#905=CARTESIAN_POINT('',(52.6534349647283,-78.2976570045034,-10.));
#906=CARTESIAN_POINT('',(52.6534349647283,43.7023429954966,-10.));
#907=CARTESIAN_POINT('',(52.6534349647283,33.7023429954966,-10.));
#908=CARTESIAN_POINT('',(-17.3465650352717,43.7023429954966,-10.));
#909=CARTESIAN_POINT('Origin',(-14.3465650352717,-75.2976570045034,0.));
#910=CARTESIAN_POINT('',(-14.3465650352717,-80.2976570045034,20.));
#911=CARTESIAN_POINT('',(-19.3465650352717,-75.2976570045034,20.));
#912=CARTESIAN_POINT('Origin',(-14.3465650352717,-75.2976570045034,20.));
#913=CARTESIAN_POINT('',(-19.3465650352717,-75.2976570045034,0.));
#914=CARTESIAN_POINT('',(-14.3465650352717,-80.2976570045034,0.));
#915=CARTESIAN_POINT('Origin',(-19.3465650352717,-80.2976570045034,0.));
#916=CARTESIAN_POINT('',(49.6534349647283,-80.2976570045034,20.));
#917=CARTESIAN_POINT('',(49.6534349647283,-80.2976570045034,0.));
#918=CARTESIAN_POINT('',(54.6534349647283,-80.2976570045034,20.));
#919=CARTESIAN_POINT('Origin',(49.6534349647283,-75.2976570045034,0.));
#920=CARTESIAN_POINT('',(54.6534349647283,-75.2976570045034,20.));
#921=CARTESIAN_POINT('Origin',(49.6534349647283,-75.2976570045034,20.));
#922=CARTESIAN_POINT('',(54.6534349647283,-75.2976570045034,0.));
#923=CARTESIAN_POINT('Origin',(54.6534349647283,-80.2976570045034,0.));
#924=CARTESIAN_POINT('',(54.6534349647283,41.2023429954966,20.));
#925=CARTESIAN_POINT('',(54.6534349647283,41.2023429954966,0.));
#926=CARTESIAN_POINT('',(54.6534349647283,33.7023429954966,20.));
#927=CARTESIAN_POINT('Origin',(47.1534349647283,41.2023429954966,0.));
#928=CARTESIAN_POINT('',(47.1534349647283,48.7023429954966,20.));
#929=CARTESIAN_POINT('',(47.1534349647283,48.7023429954966,0.));
#930=CARTESIAN_POINT('Origin',(47.1534349647283,41.2023429954966,20.));
#931=CARTESIAN_POINT('Origin',(54.6534349647283,48.7023429954966,0.));
#932=CARTESIAN_POINT('',(-11.8465650352717,48.7023429954966,20.));
#933=CARTESIAN_POINT('',(-11.8465650352717,48.7023429954966,0.));
#934=CARTESIAN_POINT('',(-19.3465650352717,48.7023429954966,20.));
#935=CARTESIAN_POINT('Origin',(-11.8465650352717,41.2023429954966,0.));
#936=CARTESIAN_POINT('',(-19.3465650352717,41.2023429954966,20.));
#937=CARTESIAN_POINT('Origin',(-11.8465650352717,41.2023429954966,20.));
#938=CARTESIAN_POINT('',(-19.3465650352717,41.2023429954966,0.));
#939=CARTESIAN_POINT('Origin',(52.6534349647283,43.7023429954966,18.));
#940=CARTESIAN_POINT('',(-17.3465650352717,43.7023429954966,18.));
#941=CARTESIAN_POINT('',(52.6534349647283,43.7023429954966,18.));
#942=CARTESIAN_POINT('',(35.1534349647283,43.7023429954966,18.));
#943=CARTESIAN_POINT('',(-17.3465650352717,43.7023429954966,9.));
#944=CARTESIAN_POINT('',(52.6534349647283,43.7023429954966,9.));
#945=CARTESIAN_POINT('Origin',(-17.3465650352717,-78.2976570045034,0.));
#946=CARTESIAN_POINT('',(-17.3465650352717,-78.2976570045034,18.));
#947=CARTESIAN_POINT('',(-17.3465650352717,31.7023429954966,18.));
#948=CARTESIAN_POINT('',(-17.3465650352717,-78.2976570045034,0.));
#949=CARTESIAN_POINT('Origin',(17.6534349647283,-23.2976570045034,18.));
#950=CARTESIAN_POINT('',(52.6534349647283,-78.2976570045034,18.));
#951=CARTESIAN_POINT('',(52.6534349647283,33.7023429954966,18.));
#952=CARTESIAN_POINT('',(35.1534349647283,-78.2976570045034,18.));
#953=CARTESIAN_POINT('',(30.4034349647283,-72.2976570045034,18.));
#954=CARTESIAN_POINT('',(4.90343496472827,-72.2976570045034,18.));
#955=CARTESIAN_POINT('',(11.2784349647283,-72.2976570045034,18.));
#956=CARTESIAN_POINT('',(30.4034349647283,-57.2976570045034,18.));
#957=CARTESIAN_POINT('',(30.4034349647283,-47.7976570045034,18.));
#958=CARTESIAN_POINT('',(4.90343496472827,-57.2976570045034,18.));
#959=CARTESIAN_POINT('',(24.0284349647283,-57.2976570045034,18.));
#960=CARTESIAN_POINT('',(4.90343496472827,-40.2976570045034,18.));
#961=CARTESIAN_POINT('',(4.65343496472827,-64.7976570045034,18.));
#962=CARTESIAN_POINT('Origin',(3.65343496472827,-64.7976570045034,18.));
#963=CARTESIAN_POINT('',(32.6534349647283,-64.5476570045034,18.));
#964=CARTESIAN_POINT('Origin',(31.6534349647283,-64.5476570045034,18.));
#965=CARTESIAN_POINT('',(23.737389952447,-46.0471750597916,18.));
#966=CARTESIAN_POINT('Origin',(18.237389952447,-46.0471750597916,18.));
#967=CARTESIAN_POINT('Origin',(18.237389952447,-46.0471750597916,20.));
#968=CARTESIAN_POINT('',(23.737389952447,-46.0471750597916,20.));
#969=CARTESIAN_POINT('Origin',(18.237389952447,-46.0471750597916,20.));
#970=CARTESIAN_POINT('',(23.737389952447,-46.0471750597916,20.));
#971=CARTESIAN_POINT('Origin',(31.6534349647283,-64.5476570045034,20.));
#972=CARTESIAN_POINT('',(32.6534349647283,-64.5476570045034,20.));
#973=CARTESIAN_POINT('Origin',(31.6534349647283,-64.5476570045034,20.));
#974=CARTESIAN_POINT('',(32.6534349647283,-64.5476570045034,20.));
#975=CARTESIAN_POINT('Origin',(3.65343496472827,-64.7976570045034,20.));
#976=CARTESIAN_POINT('',(4.65343496472827,-64.7976570045034,20.));
#977=CARTESIAN_POINT('Origin',(3.65343496472827,-64.7976570045034,20.));
#978=CARTESIAN_POINT('',(4.65343496472827,-64.7976570045034,20.));
#979=CARTESIAN_POINT('Origin',(4.90343496472827,-65.0000009685755,10.0000001490116));
#980=CARTESIAN_POINT('',(4.90343496472827,-59.9009813790014,10.0000001490116));
#981=CARTESIAN_POINT('Origin',(4.90343496472827,-65.0000009685755,10.0000001490116));
#982=CARTESIAN_POINT('',(5.90343496472827,-59.9009813790014,10.0000001490116));
#983=CARTESIAN_POINT('',(4.90343496472827,-59.9009813790014,10.0000001490116));
#984=CARTESIAN_POINT('Origin',(5.90343496472827,-65.0000009685755,10.0000001490116));
#985=CARTESIAN_POINT('Origin',(5.90343496472827,-71.2976570045034,0.));
#986=CARTESIAN_POINT('',(5.90343496472827,-71.2976570045034,0.));
#987=CARTESIAN_POINT('',(5.90343496472827,-71.2976570045034,20.));
#988=CARTESIAN_POINT('',(5.90343496472827,-71.2976570045034,18.));
#989=CARTESIAN_POINT('',(5.90343496472827,-58.2976570045034,0.));
#990=CARTESIAN_POINT('',(5.90343496472827,-71.2976570045034,0.));
#991=CARTESIAN_POINT('',(5.90343496472827,-58.2976570045034,20.));
#992=CARTESIAN_POINT('',(5.90343496472827,-58.2976570045034,0.));
#993=CARTESIAN_POINT('',(5.90343496472827,-40.7976570045034,20.));
#994=CARTESIAN_POINT('Origin',(29.4034349647283,-71.2976570045034,0.));
#995=CARTESIAN_POINT('',(29.4034349647283,-71.2976570045034,0.));
#996=CARTESIAN_POINT('',(29.4034349647283,-71.2976570045034,20.));
#997=CARTESIAN_POINT('',(29.4034349647283,-71.2976570045034,18.));
#998=CARTESIAN_POINT('',(29.4034349647283,-71.2976570045034,0.));
#999=CARTESIAN_POINT('',(11.7784349647283,-71.2976570045034,20.));
#1000=CARTESIAN_POINT('Origin',(30.4034349647283,-57.2976570045034,0.));
#1001=CARTESIAN_POINT('',(30.4034349647283,-57.2976570045034,0.));
#1002=CARTESIAN_POINT('',(30.4034349647283,-57.2976570045034,0.));
#1003=CARTESIAN_POINT('',(4.90343496472827,-57.2976570045034,0.));
#1004=CARTESIAN_POINT('',(4.90343496472827,-57.2976570045034,0.));
#1005=CARTESIAN_POINT('',(4.90343496472827,-57.2976570045034,0.));
#1006=CARTESIAN_POINT('Origin',(30.4034349647283,-72.2976570045034,0.));
#1007=CARTESIAN_POINT('',(30.4034349647283,-72.2976570045034,0.));
#1008=CARTESIAN_POINT('',(30.4034349647283,-72.2976570045034,0.));
#1009=CARTESIAN_POINT('',(30.4034349647283,-57.2976570045034,0.));
#1010=CARTESIAN_POINT('Origin',(29.4034349647283,-58.2976570045034,0.));
#1011=CARTESIAN_POINT('',(29.4034349647283,-58.2976570045034,0.));
#1012=CARTESIAN_POINT('',(29.4034349647283,-58.2976570045034,20.));
#1013=CARTESIAN_POINT('',(29.4034349647283,-58.2976570045034,0.));
#1014=CARTESIAN_POINT('',(29.4034349647283,-58.2976570045034,0.));
#1015=CARTESIAN_POINT('',(29.4034349647283,-47.2976570045034,20.));
#1016=CARTESIAN_POINT('Origin',(5.90343496472827,-58.2976570045034,0.));
#1017=CARTESIAN_POINT('',(5.90343496472827,-58.2976570045034,0.));
#1018=CARTESIAN_POINT('',(23.5284349647283,-58.2976570045034,20.));
#1019=CARTESIAN_POINT('Origin',(4.90343496472827,-72.2976570045034,0.));
#1020=CARTESIAN_POINT('',(4.90343496472827,-72.2976570045034,0.));
#1021=CARTESIAN_POINT('',(4.90343496472827,-72.2976570045034,0.));
#1022=CARTESIAN_POINT('',(30.4034349647283,-72.2976570045034,0.));
#1023=CARTESIAN_POINT('Origin',(4.90343496472827,-57.2976570045034,0.));
#1024=CARTESIAN_POINT('',(4.90343496472827,-72.2976570045034,0.));
#1025=CARTESIAN_POINT('Origin',(17.6534349647283,-64.7976570045034,0.));
#1026=CARTESIAN_POINT('Origin',(52.6534349647283,-78.2976570045034,0.));
#1027=CARTESIAN_POINT('',(52.6534349647283,-78.2976570045034,0.));
#1028=CARTESIAN_POINT('Origin',(52.6534349647283,31.7023429954966,0.));
#1029=CARTESIAN_POINT('Origin',(-19.3465650352717,33.7023429954966,0.));
#1030=CARTESIAN_POINT('',(-19.3465650352717,33.7023429954966,20.));
#1031=CARTESIAN_POINT('Origin',(17.6534349647283,-23.2976570045034,20.));
#1032=UNCERTAINTY_MEASURE_WITH_UNIT(LENGTH_MEASURE(0.01),#1036,
'DISTANCE_ACCURACY_VALUE',
'Maximum model space distance between geometric entities at asserted c
onnectivities');
#1033=UNCERTAINTY_MEASURE_WITH_UNIT(LENGTH_MEASURE(0.01),#1036,
'DISTANCE_ACCURACY_VALUE',
'Maximum model space distance between geometric entities at asserted c
onnectivities');
#1034=(
GEOMETRIC_REPRESENTATION_CONTEXT(3)
GLOBAL_UNCERTAINTY_ASSIGNED_CONTEXT((#1032))
GLOBAL_UNIT_ASSIGNED_CONTEXT((#1036,#1038,#1039))
REPRESENTATION_CONTEXT('','3D')
);
#1035=(
GEOMETRIC_REPRESENTATION_CONTEXT(3)
GLOBAL_UNCERTAINTY_ASSIGNED_CONTEXT((#1033))
GLOBAL_UNIT_ASSIGNED_CONTEXT((#1036,#1038,#1039))
REPRESENTATION_CONTEXT('','3D')
);
#1036=(
LENGTH_UNIT()
NAMED_UNIT(*)
SI_UNIT(.MILLI.,.METRE.)
);
#1037=(
LENGTH_UNIT()
NAMED_UNIT(*)
SI_UNIT($,.METRE.)
);
#1038=(
NAMED_UNIT(*)
PLANE_ANGLE_UNIT()
SI_UNIT($,.RADIAN.)
);
#1039=(
NAMED_UNIT(*)
SI_UNIT($,.STERADIAN.)
SOLID_ANGLE_UNIT()
);
#1040=SHAPE_DEFINITION_REPRESENTATION(#1041,#1042);
#1041=PRODUCT_DEFINITION_SHAPE('',$,#1044);
#1042=SHAPE_REPRESENTATION('',(#644),#1034);
#1043=PRODUCT_DEFINITION_CONTEXT('part definition',#1048,'design');
#1044=PRODUCT_DEFINITION('2026-09-19-20-58-54-888','base',#1045,#1043);
#1045=PRODUCT_DEFINITION_FORMATION('',$,#1050);
#1046=PRODUCT_RELATED_PRODUCT_CATEGORY('base','base',(#1050));
#1047=APPLICATION_PROTOCOL_DEFINITION('international standard',
'automotive_design',2009,#1048);
#1048=APPLICATION_CONTEXT(
'Core Data for Automotive Mechanical Design Process');
#1049=PRODUCT_CONTEXT('part definition',#1048,'mechanical');
#1050=PRODUCT('2026-09-19-20-58-54-888','base',$,(#1049));
#1051=PRESENTATION_STYLE_ASSIGNMENT((#1052));
#1052=SURFACE_STYLE_USAGE(.BOTH.,#1053);
#1053=SURFACE_SIDE_STYLE('',(#1054));
#1054=SURFACE_STYLE_FILL_AREA(#1055);
#1055=FILL_AREA_STYLE('Steel - Satin',(#1056));
#1056=FILL_AREA_STYLE_COLOUR('Steel - Satin',#1057);
#1057=COLOUR_RGB('Steel - Satin',0.627450980392157,0.627450980392157,0.627450980392157);
ENDSEC;
END-ISO-10303-21;
