ISO-10303-21;
HEADER;
/* Generated by software containing ST-Developer
 * from STEP Tools, Inc. (www.steptools.com) 
 */

FILE_DESCRIPTION(
/* description */ (''),
/* implementation_level */ '2;1');

FILE_NAME(
/* name */ 'cameraattachment.step',
/* time_stamp */ '2026-09-26T12:01:33-07:00',
/* author */ (''),
/* organization */ (''),
/* preprocessor_version */ 'ST-DEVELOPER v20.2',
/* originating_system */ 'Autodesk Translation Framework v15.15.0.0',
/* authorisation */ '');

FILE_SCHEMA (('AUTOMOTIVE_DESIGN { 1 0 10303 214 3 1 1 }'));
ENDSEC;

DATA;
#10=MECHANICAL_DESIGN_GEOMETRIC_PRESENTATION_REPRESENTATION('',(#13),#564);
#11=SHAPE_REPRESENTATION_RELATIONSHIP('SRR','None',#571,#12);
#12=ADVANCED_BREP_SHAPE_REPRESENTATION('',(#14),#563);
#13=STYLED_ITEM('',(#580),#14);
#14=MANIFOLD_SOLID_BREP('Body2',#344);
#15=CYLINDRICAL_SURFACE('',#364,1.25);
#16=CYLINDRICAL_SURFACE('',#366,1.25);
#17=CYLINDRICAL_SURFACE('',#375,1.00000003848989);
#18=CYLINDRICAL_SURFACE('',#377,0.999999999999999);
#19=FACE_BOUND('',#54,.T.);
#20=FACE_BOUND('',#55,.T.);
#21=FACE_BOUND('',#61,.T.);
#22=FACE_BOUND('',#62,.T.);
#23=FACE_BOUND('',#64,.T.);
#24=FACE_BOUND('',#65,.T.);
#25=FACE_BOUND('',#74,.T.);
#26=FACE_BOUND('',#75,.T.);
#27=FACE_BOUND('',#76,.T.);
#28=CIRCLE('',#360,1.25);
#29=CIRCLE('',#361,1.25);
#30=CIRCLE('',#365,1.25);
#31=CIRCLE('',#367,1.25);
#32=CIRCLE('',#369,1.00000003848989);
#33=CIRCLE('',#370,0.999999999999999);
#34=CIRCLE('',#376,1.00000003848989);
#35=CIRCLE('',#378,0.999999999999999);
#36=FACE_OUTER_BOUND('',#52,.T.);
#37=FACE_OUTER_BOUND('',#53,.T.);
#38=FACE_OUTER_BOUND('',#56,.T.);
#39=FACE_OUTER_BOUND('',#57,.T.);
#40=FACE_OUTER_BOUND('',#58,.T.);
#41=FACE_OUTER_BOUND('',#59,.T.);
#42=FACE_OUTER_BOUND('',#60,.T.);
#43=FACE_OUTER_BOUND('',#63,.T.);
#44=FACE_OUTER_BOUND('',#66,.T.);
#45=FACE_OUTER_BOUND('',#67,.T.);
#46=FACE_OUTER_BOUND('',#68,.T.);
#47=FACE_OUTER_BOUND('',#69,.T.);
#48=FACE_OUTER_BOUND('',#70,.T.);
#49=FACE_OUTER_BOUND('',#71,.T.);
#50=FACE_OUTER_BOUND('',#72,.T.);
#51=FACE_OUTER_BOUND('',#73,.T.);
#52=EDGE_LOOP('',(#226,#227,#228,#229));
#53=EDGE_LOOP('',(#230,#231,#232,#233,#234,#235));
#54=EDGE_LOOP('',(#236));
#55=EDGE_LOOP('',(#237));
#56=EDGE_LOOP('',(#238,#239,#240,#241));
#57=EDGE_LOOP('',(#242,#243,#244,#245));
#58=EDGE_LOOP('',(#246,#247,#248,#249));
#59=EDGE_LOOP('',(#250,#251,#252,#253));
#60=EDGE_LOOP('',(#254,#255,#256,#257,#258,#259,#260,#261,#262,#263));
#61=EDGE_LOOP('',(#264));
#62=EDGE_LOOP('',(#265));
#63=EDGE_LOOP('',(#266,#267,#268,#269,#270,#271,#272,#273));
#64=EDGE_LOOP('',(#274));
#65=EDGE_LOOP('',(#275));
#66=EDGE_LOOP('',(#276,#277,#278,#279));
#67=EDGE_LOOP('',(#280,#281,#282,#283));
#68=EDGE_LOOP('',(#284,#285,#286,#287));
#69=EDGE_LOOP('',(#288,#289,#290,#291));
#70=EDGE_LOOP('',(#292,#293,#294,#295));
#71=EDGE_LOOP('',(#296,#297,#298,#299));
#72=EDGE_LOOP('',(#300,#301,#302,#303,#304,#305));
#73=EDGE_LOOP('',(#306,#307,#308,#309));
#74=EDGE_LOOP('',(#310));
#75=EDGE_LOOP('',(#311));
#76=EDGE_LOOP('',(#312,#313,#314,#315));
#77=LINE('',#473,#114);
#78=LINE('',#475,#115);
#79=LINE('',#477,#116);
#80=LINE('',#478,#117);
#81=LINE('',#481,#118);
#82=LINE('',#483,#119);
#83=LINE('',#485,#120);
#84=LINE('',#487,#121);
#85=LINE('',#488,#122);
#86=LINE('',#495,#123);
#87=LINE('',#496,#124);
#88=LINE('',#499,#125);
#89=LINE('',#501,#126);
#90=LINE('',#502,#127);
#91=LINE('',#505,#128);
#92=LINE('',#509,#129);
#93=LINE('',#513,#130);
#94=LINE('',#515,#131);
#95=LINE('',#517,#132);
#96=LINE('',#519,#133);
#97=LINE('',#521,#134);
#98=LINE('',#523,#135);
#99=LINE('',#524,#136);
#100=LINE('',#530,#137);
#101=LINE('',#532,#138);
#102=LINE('',#534,#139);
#103=LINE('',#535,#140);
#104=LINE('',#538,#141);
#105=LINE('',#539,#142);
#106=LINE('',#542,#143);
#107=LINE('',#543,#144);
#108=LINE('',#545,#145);
#109=LINE('',#548,#146);
#110=LINE('',#552,#147);
#111=LINE('',#556,#148);
#112=LINE('',#557,#149);
#113=LINE('',#559,#150);
#114=VECTOR('',#386,10.);
#115=VECTOR('',#387,10.);
#116=VECTOR('',#388,10.);
#117=VECTOR('',#389,10.);
#118=VECTOR('',#392,10.);
#119=VECTOR('',#393,10.);
#120=VECTOR('',#394,10.);
#121=VECTOR('',#395,10.);
#122=VECTOR('',#396,10.);
#123=VECTOR('',#403,10.);
#124=VECTOR('',#404,10.);
#125=VECTOR('',#407,10.);
#126=VECTOR('',#408,10.);
#127=VECTOR('',#409,10.);
#128=VECTOR('',#412,1.25);
#129=VECTOR('',#417,1.25);
#130=VECTOR('',#422,10.);
#131=VECTOR('',#423,10.);
#132=VECTOR('',#424,10.);
#133=VECTOR('',#425,10.);
#134=VECTOR('',#426,10.);
#135=VECTOR('',#427,10.);
#136=VECTOR('',#428,10.);
#137=VECTOR('',#435,10.);
#138=VECTOR('',#436,10.);
#139=VECTOR('',#437,10.);
#140=VECTOR('',#438,10.);
#141=VECTOR('',#441,10.);
#142=VECTOR('',#442,10.);
#143=VECTOR('',#445,10.);
#144=VECTOR('',#446,10.);
#145=VECTOR('',#449,10.);
#146=VECTOR('',#452,1.00000003848989);
#147=VECTOR('',#457,0.999999999999999);
#148=VECTOR('',#462,10.);
#149=VECTOR('',#463,10.);
#150=VECTOR('',#466,10.);
#151=VERTEX_POINT('',#471);
#152=VERTEX_POINT('',#472);
#153=VERTEX_POINT('',#474);
#154=VERTEX_POINT('',#476);
#155=VERTEX_POINT('',#480);
#156=VERTEX_POINT('',#482);
#157=VERTEX_POINT('',#484);
#158=VERTEX_POINT('',#486);
#159=VERTEX_POINT('',#489);
#160=VERTEX_POINT('',#491);
#161=VERTEX_POINT('',#494);
#162=VERTEX_POINT('',#498);
#163=VERTEX_POINT('',#500);
#164=VERTEX_POINT('',#504);
#165=VERTEX_POINT('',#508);
#166=VERTEX_POINT('',#512);
#167=VERTEX_POINT('',#514);
#168=VERTEX_POINT('',#516);
#169=VERTEX_POINT('',#518);
#170=VERTEX_POINT('',#520);
#171=VERTEX_POINT('',#522);
#172=VERTEX_POINT('',#525);
#173=VERTEX_POINT('',#527);
#174=VERTEX_POINT('',#531);
#175=VERTEX_POINT('',#533);
#176=VERTEX_POINT('',#537);
#177=VERTEX_POINT('',#541);
#178=VERTEX_POINT('',#547);
#179=VERTEX_POINT('',#551);
#180=VERTEX_POINT('',#555);
#181=EDGE_CURVE('',#151,#152,#77,.T.);
#182=EDGE_CURVE('',#153,#151,#78,.T.);
#183=EDGE_CURVE('',#154,#153,#79,.T.);
#184=EDGE_CURVE('',#152,#154,#80,.T.);
#185=EDGE_CURVE('',#151,#155,#81,.T.);
#186=EDGE_CURVE('',#155,#156,#82,.T.);
#187=EDGE_CURVE('',#157,#156,#83,.T.);
#188=EDGE_CURVE('',#158,#157,#84,.T.);
#189=EDGE_CURVE('',#158,#153,#85,.T.);
#190=EDGE_CURVE('',#159,#159,#28,.T.);
#191=EDGE_CURVE('',#160,#160,#29,.T.);
#192=EDGE_CURVE('',#161,#152,#86,.T.);
#193=EDGE_CURVE('',#161,#155,#87,.T.);
#194=EDGE_CURVE('',#162,#156,#88,.T.);
#195=EDGE_CURVE('',#163,#162,#89,.T.);
#196=EDGE_CURVE('',#157,#163,#90,.T.);
#197=EDGE_CURVE('',#159,#164,#91,.T.);
#198=EDGE_CURVE('',#164,#164,#30,.T.);
#199=EDGE_CURVE('',#160,#165,#92,.T.);
#200=EDGE_CURVE('',#165,#165,#31,.T.);
#201=EDGE_CURVE('',#161,#166,#93,.T.);
#202=EDGE_CURVE('',#166,#167,#94,.T.);
#203=EDGE_CURVE('',#167,#168,#95,.T.);
#204=EDGE_CURVE('',#168,#169,#96,.T.);
#205=EDGE_CURVE('',#169,#170,#97,.T.);
#206=EDGE_CURVE('',#170,#171,#98,.T.);
#207=EDGE_CURVE('',#171,#162,#99,.T.);
#208=EDGE_CURVE('',#172,#172,#32,.T.);
#209=EDGE_CURVE('',#173,#173,#33,.T.);
#210=EDGE_CURVE('',#170,#154,#100,.T.);
#211=EDGE_CURVE('',#174,#169,#101,.T.);
#212=EDGE_CURVE('',#174,#175,#102,.T.);
#213=EDGE_CURVE('',#175,#166,#103,.T.);
#214=EDGE_CURVE('',#176,#174,#104,.T.);
#215=EDGE_CURVE('',#176,#168,#105,.T.);
#216=EDGE_CURVE('',#177,#176,#106,.T.);
#217=EDGE_CURVE('',#177,#167,#107,.T.);
#218=EDGE_CURVE('',#175,#177,#108,.T.);
#219=EDGE_CURVE('',#172,#178,#109,.T.);
#220=EDGE_CURVE('',#178,#178,#34,.T.);
#221=EDGE_CURVE('',#173,#179,#110,.T.);
#222=EDGE_CURVE('',#179,#179,#35,.T.);
#223=EDGE_CURVE('',#163,#180,#111,.T.);
#224=EDGE_CURVE('',#180,#171,#112,.T.);
#225=EDGE_CURVE('',#180,#158,#113,.T.);
#226=ORIENTED_EDGE('',*,*,#181,.F.);
#227=ORIENTED_EDGE('',*,*,#182,.F.);
#228=ORIENTED_EDGE('',*,*,#183,.F.);
#229=ORIENTED_EDGE('',*,*,#184,.F.);
#230=ORIENTED_EDGE('',*,*,#182,.T.);
#231=ORIENTED_EDGE('',*,*,#185,.T.);
#232=ORIENTED_EDGE('',*,*,#186,.T.);
#233=ORIENTED_EDGE('',*,*,#187,.F.);
#234=ORIENTED_EDGE('',*,*,#188,.F.);
#235=ORIENTED_EDGE('',*,*,#189,.T.);
#236=ORIENTED_EDGE('',*,*,#190,.T.);
#237=ORIENTED_EDGE('',*,*,#191,.T.);
#238=ORIENTED_EDGE('',*,*,#181,.T.);
#239=ORIENTED_EDGE('',*,*,#192,.F.);
#240=ORIENTED_EDGE('',*,*,#193,.T.);
#241=ORIENTED_EDGE('',*,*,#185,.F.);
#242=ORIENTED_EDGE('',*,*,#194,.F.);
#243=ORIENTED_EDGE('',*,*,#195,.F.);
#244=ORIENTED_EDGE('',*,*,#196,.F.);
#245=ORIENTED_EDGE('',*,*,#187,.T.);
#246=ORIENTED_EDGE('',*,*,#190,.F.);
#247=ORIENTED_EDGE('',*,*,#197,.T.);
#248=ORIENTED_EDGE('',*,*,#198,.F.);
#249=ORIENTED_EDGE('',*,*,#197,.F.);
#250=ORIENTED_EDGE('',*,*,#191,.F.);
#251=ORIENTED_EDGE('',*,*,#199,.T.);
#252=ORIENTED_EDGE('',*,*,#200,.F.);
#253=ORIENTED_EDGE('',*,*,#199,.F.);
#254=ORIENTED_EDGE('',*,*,#201,.T.);
#255=ORIENTED_EDGE('',*,*,#202,.T.);
#256=ORIENTED_EDGE('',*,*,#203,.T.);
#257=ORIENTED_EDGE('',*,*,#204,.T.);
#258=ORIENTED_EDGE('',*,*,#205,.T.);
#259=ORIENTED_EDGE('',*,*,#206,.T.);
#260=ORIENTED_EDGE('',*,*,#207,.T.);
#261=ORIENTED_EDGE('',*,*,#194,.T.);
#262=ORIENTED_EDGE('',*,*,#186,.F.);
#263=ORIENTED_EDGE('',*,*,#193,.F.);
#264=ORIENTED_EDGE('',*,*,#208,.T.);
#265=ORIENTED_EDGE('',*,*,#209,.T.);
#266=ORIENTED_EDGE('',*,*,#184,.T.);
#267=ORIENTED_EDGE('',*,*,#210,.F.);
#268=ORIENTED_EDGE('',*,*,#205,.F.);
#269=ORIENTED_EDGE('',*,*,#211,.F.);
#270=ORIENTED_EDGE('',*,*,#212,.T.);
#271=ORIENTED_EDGE('',*,*,#213,.T.);
#272=ORIENTED_EDGE('',*,*,#201,.F.);
#273=ORIENTED_EDGE('',*,*,#192,.T.);
#274=ORIENTED_EDGE('',*,*,#198,.T.);
#275=ORIENTED_EDGE('',*,*,#200,.T.);
#276=ORIENTED_EDGE('',*,*,#214,.T.);
#277=ORIENTED_EDGE('',*,*,#211,.T.);
#278=ORIENTED_EDGE('',*,*,#204,.F.);
#279=ORIENTED_EDGE('',*,*,#215,.F.);
#280=ORIENTED_EDGE('',*,*,#216,.T.);
#281=ORIENTED_EDGE('',*,*,#215,.T.);
#282=ORIENTED_EDGE('',*,*,#203,.F.);
#283=ORIENTED_EDGE('',*,*,#217,.F.);
#284=ORIENTED_EDGE('',*,*,#218,.T.);
#285=ORIENTED_EDGE('',*,*,#217,.T.);
#286=ORIENTED_EDGE('',*,*,#202,.F.);
#287=ORIENTED_EDGE('',*,*,#213,.F.);
#288=ORIENTED_EDGE('',*,*,#208,.F.);
#289=ORIENTED_EDGE('',*,*,#219,.T.);
#290=ORIENTED_EDGE('',*,*,#220,.T.);
#291=ORIENTED_EDGE('',*,*,#219,.F.);
#292=ORIENTED_EDGE('',*,*,#209,.F.);
#293=ORIENTED_EDGE('',*,*,#221,.T.);
#294=ORIENTED_EDGE('',*,*,#222,.T.);
#295=ORIENTED_EDGE('',*,*,#221,.F.);
#296=ORIENTED_EDGE('',*,*,#223,.F.);
#297=ORIENTED_EDGE('',*,*,#195,.T.);
#298=ORIENTED_EDGE('',*,*,#207,.F.);
#299=ORIENTED_EDGE('',*,*,#224,.F.);
#300=ORIENTED_EDGE('',*,*,#183,.T.);
#301=ORIENTED_EDGE('',*,*,#189,.F.);
#302=ORIENTED_EDGE('',*,*,#225,.F.);
#303=ORIENTED_EDGE('',*,*,#224,.T.);
#304=ORIENTED_EDGE('',*,*,#206,.F.);
#305=ORIENTED_EDGE('',*,*,#210,.T.);
#306=ORIENTED_EDGE('',*,*,#188,.T.);
#307=ORIENTED_EDGE('',*,*,#196,.T.);
#308=ORIENTED_EDGE('',*,*,#223,.T.);
#309=ORIENTED_EDGE('',*,*,#225,.T.);
#310=ORIENTED_EDGE('',*,*,#222,.F.);
#311=ORIENTED_EDGE('',*,*,#220,.F.);
#312=ORIENTED_EDGE('',*,*,#218,.F.);
#313=ORIENTED_EDGE('',*,*,#212,.F.);
#314=ORIENTED_EDGE('',*,*,#214,.F.);
#315=ORIENTED_EDGE('',*,*,#216,.F.);
#316=PLANE('',#358);
#317=PLANE('',#359);
#318=PLANE('',#362);
#319=PLANE('',#363);
#320=PLANE('',#368);
#321=PLANE('',#371);
#322=PLANE('',#372);
#323=PLANE('',#373);
#324=PLANE('',#374);
#325=PLANE('',#379);
#326=PLANE('',#380);
#327=PLANE('',#381);
#328=ADVANCED_FACE('',(#36),#316,.F.);
#329=ADVANCED_FACE('',(#37,#19,#20),#317,.T.);
#330=ADVANCED_FACE('',(#38),#318,.F.);
#331=ADVANCED_FACE('',(#39),#319,.T.);
#332=ADVANCED_FACE('',(#40),#15,.F.);
#333=ADVANCED_FACE('',(#41),#16,.F.);
#334=ADVANCED_FACE('',(#42,#21,#22),#320,.T.);
#335=ADVANCED_FACE('',(#43,#23,#24),#321,.T.);
#336=ADVANCED_FACE('',(#44),#322,.T.);
#337=ADVANCED_FACE('',(#45),#323,.T.);
#338=ADVANCED_FACE('',(#46),#324,.T.);
#339=ADVANCED_FACE('',(#47),#17,.F.);
#340=ADVANCED_FACE('',(#48),#18,.F.);
#341=ADVANCED_FACE('',(#49),#325,.T.);
#342=ADVANCED_FACE('',(#50),#326,.T.);
#343=ADVANCED_FACE('',(#51,#25,#26,#27),#327,.F.);
#344=CLOSED_SHELL('',(#328,#329,#330,#331,#332,#333,#334,#335,#336,#337,
#338,#339,#340,#341,#342,#343));
#345=DERIVED_UNIT_ELEMENT(#347,1.);
#346=DERIVED_UNIT_ELEMENT(#566,-3.);
#347=(
MASS_UNIT()
NAMED_UNIT(*)
SI_UNIT(.KILO.,.GRAM.)
);
#348=DERIVED_UNIT((#345,#346));
#349=MEASURE_REPRESENTATION_ITEM('density measure',
POSITIVE_RATIO_MEASURE(7850.),#348);
#350=PROPERTY_DEFINITION_REPRESENTATION(#355,#352);
#351=PROPERTY_DEFINITION_REPRESENTATION(#356,#353);
#352=REPRESENTATION('material name',(#354),#563);
#353=REPRESENTATION('density',(#349),#563);
#354=DESCRIPTIVE_REPRESENTATION_ITEM('Steel','Steel');
#355=PROPERTY_DEFINITION('material property','material name',#573);
#356=PROPERTY_DEFINITION('material property','density of part',#573);
#357=AXIS2_PLACEMENT_3D('',#469,#382,#383);
#358=AXIS2_PLACEMENT_3D('',#470,#384,#385);
#359=AXIS2_PLACEMENT_3D('',#479,#390,#391);
#360=AXIS2_PLACEMENT_3D('',#490,#397,#398);
#361=AXIS2_PLACEMENT_3D('',#492,#399,#400);
#362=AXIS2_PLACEMENT_3D('',#493,#401,#402);
#363=AXIS2_PLACEMENT_3D('',#497,#405,#406);
#364=AXIS2_PLACEMENT_3D('',#503,#410,#411);
#365=AXIS2_PLACEMENT_3D('',#506,#413,#414);
#366=AXIS2_PLACEMENT_3D('',#507,#415,#416);
#367=AXIS2_PLACEMENT_3D('',#510,#418,#419);
#368=AXIS2_PLACEMENT_3D('',#511,#420,#421);
#369=AXIS2_PLACEMENT_3D('',#526,#429,#430);
#370=AXIS2_PLACEMENT_3D('',#528,#431,#432);
#371=AXIS2_PLACEMENT_3D('',#529,#433,#434);
#372=AXIS2_PLACEMENT_3D('',#536,#439,#440);
#373=AXIS2_PLACEMENT_3D('',#540,#443,#444);
#374=AXIS2_PLACEMENT_3D('',#544,#447,#448);
#375=AXIS2_PLACEMENT_3D('',#546,#450,#451);
#376=AXIS2_PLACEMENT_3D('',#549,#453,#454);
#377=AXIS2_PLACEMENT_3D('',#550,#455,#456);
#378=AXIS2_PLACEMENT_3D('',#553,#458,#459);
#379=AXIS2_PLACEMENT_3D('',#554,#460,#461);
#380=AXIS2_PLACEMENT_3D('',#558,#464,#465);
#381=AXIS2_PLACEMENT_3D('',#560,#467,#468);
#382=DIRECTION('axis',(0.,0.,1.));
#383=DIRECTION('refdir',(1.,0.,0.));
#384=DIRECTION('center_axis',(-1.,0.,0.));
#385=DIRECTION('ref_axis',(0.,0.,1.));
#386=DIRECTION('',(0.,-1.,0.));
#387=DIRECTION('',(0.,0.,-1.));
#388=DIRECTION('',(0.,1.,0.));
#389=DIRECTION('',(0.,0.,1.));
#390=DIRECTION('center_axis',(0.,1.,0.));
#391=DIRECTION('ref_axis',(0.,0.,1.));
#392=DIRECTION('',(-1.,0.,0.));
#393=DIRECTION('',(0.,0.,-1.));
#394=DIRECTION('',(1.,0.,0.));
#395=DIRECTION('',(0.,0.,-1.));
#396=DIRECTION('',(1.,0.,0.));
#397=DIRECTION('center_axis',(0.,-1.,0.));
#398=DIRECTION('ref_axis',(-1.,0.,0.));
#399=DIRECTION('center_axis',(0.,-1.,0.));
#400=DIRECTION('ref_axis',(-1.,0.,0.));
#401=DIRECTION('center_axis',(0.,0.,1.));
#402=DIRECTION('ref_axis',(0.,1.,0.));
#403=DIRECTION('',(1.,0.,0.));
#404=DIRECTION('',(0.,1.,0.));
#405=DIRECTION('center_axis',(0.,0.,-1.));
#406=DIRECTION('ref_axis',(0.,1.,0.));
#407=DIRECTION('',(0.,1.,0.));
#408=DIRECTION('',(1.,0.,0.));
#409=DIRECTION('',(0.,-1.,0.));
#410=DIRECTION('center_axis',(0.,-1.,0.));
#411=DIRECTION('ref_axis',(-1.,0.,0.));
#412=DIRECTION('',(0.,-1.,0.));
#413=DIRECTION('center_axis',(0.,1.,0.));
#414=DIRECTION('ref_axis',(-1.,0.,0.));
#415=DIRECTION('center_axis',(0.,-1.,0.));
#416=DIRECTION('ref_axis',(-1.,0.,0.));
#417=DIRECTION('',(0.,-1.,0.));
#418=DIRECTION('center_axis',(0.,1.,0.));
#419=DIRECTION('ref_axis',(-1.,0.,0.));
#420=DIRECTION('center_axis',(1.,0.,0.));
#421=DIRECTION('ref_axis',(0.,1.,0.));
#422=DIRECTION('',(0.,0.,1.));
#423=DIRECTION('',(0.,-1.,0.));
#424=DIRECTION('',(0.,0.,1.));
#425=DIRECTION('',(0.,1.,0.));
#426=DIRECTION('',(0.,0.,1.));
#427=DIRECTION('',(0.,-1.,0.));
#428=DIRECTION('',(0.,0.,-1.));
#429=DIRECTION('center_axis',(-1.,0.,0.));
#430=DIRECTION('ref_axis',(0.,1.,0.));
#431=DIRECTION('center_axis',(-1.,0.,0.));
#432=DIRECTION('ref_axis',(0.,1.,0.));
#433=DIRECTION('center_axis',(0.,-1.,0.));
#434=DIRECTION('ref_axis',(0.,0.,-1.));
#435=DIRECTION('',(1.,0.,0.));
#436=DIRECTION('',(1.,0.,0.));
#437=DIRECTION('',(0.,0.,-1.));
#438=DIRECTION('',(1.,0.,0.));
#439=DIRECTION('center_axis',(0.,0.,-1.));
#440=DIRECTION('ref_axis',(0.,1.,0.));
#441=DIRECTION('',(0.,1.,0.));
#442=DIRECTION('',(1.,0.,0.));
#443=DIRECTION('center_axis',(0.,1.,0.));
#444=DIRECTION('ref_axis',(0.,0.,1.));
#445=DIRECTION('',(0.,0.,1.));
#446=DIRECTION('',(1.,0.,0.));
#447=DIRECTION('center_axis',(0.,0.,1.));
#448=DIRECTION('ref_axis',(0.,-1.,0.));
#449=DIRECTION('',(0.,-1.,0.));
#450=DIRECTION('center_axis',(1.,0.,0.));
#451=DIRECTION('ref_axis',(0.,1.,0.));
#452=DIRECTION('',(-1.,0.,0.));
#453=DIRECTION('center_axis',(-1.,0.,0.));
#454=DIRECTION('ref_axis',(0.,1.,0.));
#455=DIRECTION('center_axis',(1.,0.,0.));
#456=DIRECTION('ref_axis',(0.,1.,0.));
#457=DIRECTION('',(-1.,0.,0.));
#458=DIRECTION('center_axis',(-1.,0.,0.));
#459=DIRECTION('ref_axis',(0.,1.,0.));
#460=DIRECTION('center_axis',(0.,-1.,0.));
#461=DIRECTION('ref_axis',(0.,0.,-1.));
#462=DIRECTION('',(0.,0.,1.));
#463=DIRECTION('',(1.,0.,0.));
#464=DIRECTION('center_axis',(0.,0.,1.));
#465=DIRECTION('ref_axis',(0.,-1.,0.));
#466=DIRECTION('',(0.,1.,0.));
#467=DIRECTION('center_axis',(1.,0.,0.));
#468=DIRECTION('ref_axis',(0.,1.,0.));
#469=CARTESIAN_POINT('',(0.,0.,0.));
#470=CARTESIAN_POINT('Origin',(199.862071990967,5.90193212032318,16.4000001251698));
#471=CARTESIAN_POINT('',(199.862071990967,8.40193212032318,1.65000015497208));
#472=CARTESIAN_POINT('',(199.862071990967,3.40193212032318,1.65000015497208));
#473=CARTESIAN_POINT('',(199.862071990967,4.65193212032318,1.65000015497208));
#474=CARTESIAN_POINT('',(199.862071990967,8.40193212032318,31.1500000953674));
#475=CARTESIAN_POINT('',(199.862071990967,8.40193212032318,7.02500014007091));
#476=CARTESIAN_POINT('',(199.862071990967,3.40193212032318,31.1500000953674));
#477=CARTESIAN_POINT('',(199.862071990967,7.15193212032318,31.1500000953674));
#478=CARTESIAN_POINT('',(199.862071990967,3.40193212032318,21.2750001102686));
#479=CARTESIAN_POINT('Origin',(168.862071990967,8.40193212032318,-2.34999984502792));
#480=CARTESIAN_POINT('',(171.862071990967,8.40193212032318,1.65000015497208));
#481=CARTESIAN_POINT('',(185.862071990967,8.40193212032318,1.65000015497208));
#482=CARTESIAN_POINT('',(171.862071990967,8.40193212032318,-2.34999984502792));
#483=CARTESIAN_POINT('',(171.862071990967,8.40193212032318,-1.34999984502792));
#484=CARTESIAN_POINT('',(168.862071990967,8.40193212032318,-2.34999984502792));
#485=CARTESIAN_POINT('',(168.862071990967,8.40193212032318,-2.34999984502792));
#486=CARTESIAN_POINT('',(168.862071990967,8.40193212032318,31.1500000953674));
#487=CARTESIAN_POINT('',(168.862071990967,8.40193212032318,31.1500000953674));
#488=CARTESIAN_POINT('',(168.862071990967,8.40193212032318,31.1500000953674));
#489=CARTESIAN_POINT('',(197.112071990967,8.40193212032318,3.65000015497208));
#490=CARTESIAN_POINT('Origin',(195.862071990967,8.40193212032318,3.65000015497208));
#491=CARTESIAN_POINT('',(177.112071990967,8.40193212032318,3.65000015497208));
#492=CARTESIAN_POINT('Origin',(175.862071990967,8.40193212032318,3.65000015497208));
#493=CARTESIAN_POINT('Origin',(202.862071990967,3.40193212032318,1.65000015497208));
#494=CARTESIAN_POINT('',(171.862071990967,3.40193212032318,1.65000015497208));
#495=CARTESIAN_POINT('',(185.862071990967,3.40193212032318,1.65000015497208));
#496=CARTESIAN_POINT('',(171.862071990967,3.40193212032318,1.65000015497208));
#497=CARTESIAN_POINT('Origin',(168.862071990967,-14.5980685949326,-2.34999984502792));
#498=CARTESIAN_POINT('',(171.862071990967,-14.5980685949326,-2.34999984502792));
#499=CARTESIAN_POINT('',(171.862071990967,8.40193212032318,-2.34999984502792));
#500=CARTESIAN_POINT('',(168.862071990967,-14.5980685949326,-2.34999984502792));
#501=CARTESIAN_POINT('',(168.862071990967,-14.5980685949326,-2.34999984502792));
#502=CARTESIAN_POINT('',(168.862071990967,8.40193212032318,-2.34999984502792));
#503=CARTESIAN_POINT('Origin',(195.862071990967,8.40193212032318,3.65000015497208));
#504=CARTESIAN_POINT('',(197.112071990967,3.40193212032318,3.65000015497208));
#505=CARTESIAN_POINT('',(197.112071990967,8.40193212032318,3.65000015497208));
#506=CARTESIAN_POINT('Origin',(195.862071990967,3.40193212032318,3.65000015497208));
#507=CARTESIAN_POINT('Origin',(175.862071990967,8.40193212032318,3.65000015497208));
#508=CARTESIAN_POINT('',(177.112071990967,3.40193212032318,3.65000015497208));
#509=CARTESIAN_POINT('',(177.112071990967,8.40193212032318,3.65000015497208));
#510=CARTESIAN_POINT('Origin',(175.862071990967,3.40193212032318,3.65000015497208));
#511=CARTESIAN_POINT('Origin',(171.862071990967,-3.09806823730469,14.4000001251698));
#512=CARTESIAN_POINT('',(171.862071990967,3.40193212032318,2.65000015497208));
#513=CARTESIAN_POINT('',(171.862071990967,3.40193212032318,22.7750001102686));
#514=CARTESIAN_POINT('',(171.862071990967,-9.59806859493256,2.65000015497208));
#515=CARTESIAN_POINT('',(171.862071990967,3.40193212032318,2.65000015497208));
#516=CARTESIAN_POINT('',(171.862071990967,-9.59806859493256,26.1500000953674));
#517=CARTESIAN_POINT('',(171.862071990967,-9.59806859493256,2.65000015497208));
#518=CARTESIAN_POINT('',(171.862071990967,3.40193212032318,26.1500000953674));
#519=CARTESIAN_POINT('',(171.862071990967,-9.59806859493256,26.1500000953674));
#520=CARTESIAN_POINT('',(171.862071990967,3.40193212032318,31.1500000953674));
#521=CARTESIAN_POINT('',(171.862071990967,3.40193212032318,22.7750001102686));
#522=CARTESIAN_POINT('',(171.862071990967,-14.5980685949326,31.1500000953674));
#523=CARTESIAN_POINT('',(171.862071990967,-14.5980685949326,31.1500000953674));
#524=CARTESIAN_POINT('',(171.862071990967,-14.5980685949326,-2.34999984502792));
#525=CARTESIAN_POINT('',(171.862071990967,-4.09806820128877,0.39999998640269));
#526=CARTESIAN_POINT('Origin',(171.862071990967,-3.09806816279888,0.39999998640269));
#527=CARTESIAN_POINT('',(171.862071990967,-4.09806823730469,28.400000333786));
#528=CARTESIAN_POINT('Origin',(171.862071990967,-3.09806823730469,28.400000333786));
#529=CARTESIAN_POINT('Origin',(168.862071990967,3.40193212032318,26.1500000953674));
#530=CARTESIAN_POINT('',(171.862071990967,3.40193212032318,31.1500000953674));
#531=CARTESIAN_POINT('',(168.862071990967,3.40193212032318,26.1500000953674));
#532=CARTESIAN_POINT('',(168.862071990967,3.40193212032318,26.1500000953674));
#533=CARTESIAN_POINT('',(168.862071990967,3.40193212032318,2.65000015497208));
#534=CARTESIAN_POINT('',(168.862071990967,3.40193212032318,26.1500000953674));
#535=CARTESIAN_POINT('',(168.862071990967,3.40193212032318,2.65000015497208));
#536=CARTESIAN_POINT('Origin',(168.862071990967,-9.59806859493256,26.1500000953674));
#537=CARTESIAN_POINT('',(168.862071990967,-9.59806859493256,26.1500000953674));
#538=CARTESIAN_POINT('',(168.862071990967,-9.59806859493256,26.1500000953674));
#539=CARTESIAN_POINT('',(168.862071990967,-9.59806859493256,26.1500000953674));
#540=CARTESIAN_POINT('Origin',(168.862071990967,-9.59806859493256,2.65000015497208));
#541=CARTESIAN_POINT('',(168.862071990967,-9.59806859493256,2.65000015497208));
#542=CARTESIAN_POINT('',(168.862071990967,-9.59806859493256,2.65000015497208));
#543=CARTESIAN_POINT('',(168.862071990967,-9.59806859493256,2.65000015497208));
#544=CARTESIAN_POINT('Origin',(168.862071990967,3.40193212032318,2.65000015497208));
#545=CARTESIAN_POINT('',(168.862071990967,3.40193212032318,2.65000015497208));
#546=CARTESIAN_POINT('Origin',(168.862071990967,-3.09806816279888,0.39999998640269));
#547=CARTESIAN_POINT('',(168.862071990967,-4.09806820128877,0.39999998640269));
#548=CARTESIAN_POINT('',(168.862071990967,-4.09806820128877,0.39999998640269));
#549=CARTESIAN_POINT('Origin',(168.862071990967,-3.09806816279888,0.39999998640269));
#550=CARTESIAN_POINT('Origin',(168.862071990967,-3.09806823730469,28.400000333786));
#551=CARTESIAN_POINT('',(168.862071990967,-4.09806823730469,28.400000333786));
#552=CARTESIAN_POINT('',(168.862071990967,-4.09806823730469,28.400000333786));
#553=CARTESIAN_POINT('Origin',(168.862071990967,-3.09806823730469,28.400000333786));
#554=CARTESIAN_POINT('Origin',(168.862071990967,-14.5980685949326,31.1500000953674));
#555=CARTESIAN_POINT('',(168.862071990967,-14.5980685949326,31.1500000953674));
#556=CARTESIAN_POINT('',(168.862071990967,-14.5980685949326,-2.34999984502792));
#557=CARTESIAN_POINT('',(168.862071990967,-14.5980685949326,31.1500000953674));
#558=CARTESIAN_POINT('Origin',(168.862071990967,8.40193212032318,31.1500000953674));
#559=CARTESIAN_POINT('',(168.862071990967,-14.5980685949326,31.1500000953674));
#560=CARTESIAN_POINT('Origin',(168.862071990967,-3.09806823730469,14.4000001251698));
#561=UNCERTAINTY_MEASURE_WITH_UNIT(LENGTH_MEASURE(0.01),#565,
'DISTANCE_ACCURACY_VALUE',
'Maximum model space distance between geometric entities at asserted c
onnectivities');
#562=UNCERTAINTY_MEASURE_WITH_UNIT(LENGTH_MEASURE(0.01),#565,
'DISTANCE_ACCURACY_VALUE',
'Maximum model space distance between geometric entities at asserted c
onnectivities');
#563=(
GEOMETRIC_REPRESENTATION_CONTEXT(3)
GLOBAL_UNCERTAINTY_ASSIGNED_CONTEXT((#561))
GLOBAL_UNIT_ASSIGNED_CONTEXT((#565,#567,#568))
REPRESENTATION_CONTEXT('','3D')
);
#564=(
GEOMETRIC_REPRESENTATION_CONTEXT(3)
GLOBAL_UNCERTAINTY_ASSIGNED_CONTEXT((#562))
GLOBAL_UNIT_ASSIGNED_CONTEXT((#565,#567,#568))
REPRESENTATION_CONTEXT('','3D')
);
#565=(
LENGTH_UNIT()
NAMED_UNIT(*)
SI_UNIT(.MILLI.,.METRE.)
);
#566=(
LENGTH_UNIT()
NAMED_UNIT(*)
SI_UNIT($,.METRE.)
);
#567=(
NAMED_UNIT(*)
PLANE_ANGLE_UNIT()
SI_UNIT($,.RADIAN.)
);
#568=(
NAMED_UNIT(*)
SI_UNIT($,.STERADIAN.)
SOLID_ANGLE_UNIT()
);
#569=SHAPE_DEFINITION_REPRESENTATION(#570,#571);
#570=PRODUCT_DEFINITION_SHAPE('',$,#573);
#571=SHAPE_REPRESENTATION('',(#357),#563);
#572=PRODUCT_DEFINITION_CONTEXT('part definition',#577,'design');
#573=PRODUCT_DEFINITION('2026-09-19-12-39-26-350','cameraattachment',#574,
#572);
#574=PRODUCT_DEFINITION_FORMATION('',$,#579);
#575=PRODUCT_RELATED_PRODUCT_CATEGORY('cameraattachment',
'cameraattachment',(#579));
#576=APPLICATION_PROTOCOL_DEFINITION('international standard',
'automotive_design',2009,#577);
#577=APPLICATION_CONTEXT(
'Core Data for Automotive Mechanical Design Process');
#578=PRODUCT_CONTEXT('part definition',#577,'mechanical');
#579=PRODUCT('2026-09-19-12-39-26-350','cameraattachment',$,(#578));
#580=PRESENTATION_STYLE_ASSIGNMENT((#581));
#581=SURFACE_STYLE_USAGE(.BOTH.,#582);
#582=SURFACE_SIDE_STYLE('',(#583));
#583=SURFACE_STYLE_FILL_AREA(#584);
#584=FILL_AREA_STYLE('Steel - Satin',(#585));
#585=FILL_AREA_STYLE_COLOUR('Steel - Satin',#586);
#586=COLOUR_RGB('Steel - Satin',0.627450980392157,0.627450980392157,0.627450980392157);
ENDSEC;
END-ISO-10303-21;
